<?xml version="1.0" encoding="utf-8" standalone="no"?>
<!DOCTYPE svg PUBLIC "-//W3C//DTD SVG 1.1//EN"
  "http://www.w3.org/Graphics/SVG/1.1/DTD/svg11.dtd">
<svg xmlns:xlink="http://www.w3.org/1999/xlink" width="590.478522pt" height="283.612996pt" viewBox="0 0 590.478522 283.612996" xmlns="http://www.w3.org/2000/svg" version="1.1">
 <metadata>
  <rdf:RDF xmlns:dc="http://purl.org/dc/elements/1.1/" xmlns:cc="http://creativecommons.org/ns#" xmlns:rdf="http://www.w3.org/1999/02/22-rdf-syntax-ns#">
   <cc:Work>
    <dc:type rdf:resource="http://purl.org/dc/dcmitype/StillImage"/>
    <dc:date>2026-06-30T17:35:07.709975</dc:date>
    <dc:format>image/svg+xml</dc:format>
    <dc:creator>
     <cc:Agent>
      <dc:title>Matplotlib v3.10.9, https://matplotlib.org/</dc:title>
     </cc:Agent>
    </dc:creator>
   </cc:Work>
  </rdf:RDF>
 </metadata>
 <defs>
  <style type="text/css">*{stroke-linejoin: round; stroke-linecap: butt}</style>
 </defs>
 <g id="figure_1">
  <g id="patch_1">
   <path d="M 0 283.612996 
L 590.478522 283.612996 
L 590.478522 0 
L 0 0 
z
" style="fill: #ffffff"/>
  </g>
  <g id="axes_1">
   <g id="patch_2">
    <path d="M 208.783055 209.332934 
C 218.58597 194.749387 224.240611 177.770742 225.139264 160.221684 
C 226.037922 142.672625 222.147204 125.20518 213.88525 109.696563 
C 205.623295 94.187949 193.297077 81.214368 178.231279 72.170099 
C 163.165481 63.12583 145.919875 58.346909 128.347822 58.346909 
L 128.347824 99.052579 
C 138.539614 99.052579 148.542066 101.824353 157.280229 107.070029 
C 166.018392 112.315705 173.167598 119.840382 177.959532 128.835378 
C 182.751465 137.830376 185.008082 147.961494 184.48686 158.139948 
C 183.965641 168.318402 180.68595 178.166016 175.000259 186.624473 
z
" style="fill: #dd8452; stroke: #ffffff; stroke-width: 1.8; stroke-linejoin: miter"/>
   </g>
   <g id="patch_3">
    <path d="M 76.074468 236.877948 
C 97.398822 250.536298 123.249386 255.307328 148.044397 250.160871 
C 172.839407 245.014414 194.65585 230.349611 208.783055 209.332934 
L 175.000259 186.624473 
C 166.80648 198.814146 154.152943 207.319731 139.771837 210.304676 
C 125.390731 213.289621 110.397404 210.522424 98.029278 202.600581 
z
" style="fill: #8172b3; stroke: #ffffff; stroke-width: 1.8; stroke-linejoin: miter"/>
   </g>
   <g id="patch_4">
    <path d="M 37.271621 122.124944 
C 29.744433 142.811202 29.485044 165.457247 36.536405 186.310496 
C 43.587772 207.163748 57.537646 225.005034 76.074468 236.877948 
L 98.029278 202.600581 
C 87.277922 195.714291 79.186995 185.366345 75.097202 173.271459 
C 71.007412 161.176575 71.157858 148.041869 75.523627 136.043839 
z
" style="fill: #937860; stroke: #ffffff; stroke-width: 1.8; stroke-linejoin: miter"/>
   </g>
   <g id="patch_5">
    <path d="M 82.713913 69.762569 
C 72.259859 75.342041 62.917156 82.791769 55.150358 91.741322 
C 47.38356 100.690875 41.32354 110.989429 37.271621 122.124944 
L 75.523627 136.043839 
C 77.87374 129.58524 81.388552 123.612079 85.893295 118.421338 
C 90.398037 113.230597 95.816805 108.909755 101.880156 105.673661 
z
" style="fill: #4c72b0; stroke: #ffffff; stroke-width: 1.8; stroke-linejoin: miter"/>
   </g>
   <g id="patch_6">
    <path d="M 116.388705 59.087579 
C 110.50904 59.818682 104.708805 61.087407 99.06085 62.877821 
C 93.412894 64.668236 87.940979 66.972812 82.713913 69.762569 
L 101.880156 105.673661 
C 104.911855 104.055602 108.085565 102.718948 111.36138 101.680508 
C 114.637194 100.642067 118.00133 99.906207 121.411536 99.482167 
z
" style="fill: #55a868; stroke: #ffffff; stroke-width: 1.8; stroke-linejoin: miter"/>
   </g>
   <g id="patch_7">
    <path d="M 128.347781 58.346909 
C 126.349349 58.346909 124.351395 58.40872 122.356786 58.532257 
C 120.362176 58.655793 118.371865 58.840985 116.388705 59.087579 
L 121.411536 99.482167 
C 122.561768 99.339143 123.716149 99.231731 124.873023 99.16008 
C 126.029896 99.088429 127.18871 99.052579 128.3478 99.052579 
z
" style="fill: #c44e52; stroke: #ffffff; stroke-width: 1.8; stroke-linejoin: miter"/>
   </g>
   <g id="matplotlib.axis_1"/>
   <g id="matplotlib.axis_2"/>
   <g id="text_1">
    <text style="font-size: 11px; font-family: 'Arial', 'Helvetica', 'DejaVu Sans', sans-serif; text-anchor: start; fill: #2b3038" x="220.728247" y="109.086387" transform="rotate(-0 220.728247 109.086387)">C2</text>
   </g>
   <g id="text_2">
    <text style="font-weight: 700; font-size: 11px; font-family: 'Arial', 'Helvetica', 'DejaVu Sans', sans-serif; text-anchor: middle; fill: #ffffff" x="195.067019" y="122.756969" transform="rotate(-0 195.067019 122.756969)">34%</text>
   </g>
   <g id="text_3">
    <text style="font-size: 11px; font-family: 'Arial', 'Helvetica', 'DejaVu Sans', sans-serif; text-anchor: start; fill: #2b3038" x="149.620097" y="260.787846" transform="rotate(-0 149.620097 260.787846)">C5</text>
   </g>
   <g id="text_4">
    <text style="font-weight: 700; font-size: 11px; font-family: 'Arial', 'Helvetica', 'DejaVu Sans', sans-serif; text-anchor: middle; fill: #ffffff" x="143.711133" y="232.319134" transform="rotate(-0 143.711133 232.319134)">25%</text>
   </g>
   <g id="text_5">
    <text style="font-size: 11px; font-family: 'Arial', 'Helvetica', 'DejaVu Sans', sans-serif; text-anchor: end; fill: #2b3038" x="29.191483" y="191.82941" transform="rotate(-0 29.191483 191.82941)">C6</text>
   </g>
   <g id="text_6">
    <text style="font-weight: 700; font-size: 11px; font-family: 'Arial', 'Helvetica', 'DejaVu Sans', sans-serif; text-anchor: middle; fill: #ffffff" x="56.734912" y="182.515819" transform="rotate(-0 56.734912 182.515819)">21%</text>
   </g>
   <g id="text_7">
    <text style="font-size: 11px; font-family: 'Arial', 'Helvetica', 'DejaVu Sans', sans-serif; text-anchor: end; fill: #2b3038" x="49.294574" y="89.694705" transform="rotate(-0 49.294574 89.694705)">C1</text>
   </g>
   <g id="text_8">
    <text style="font-weight: 700; font-size: 11px; font-family: 'Arial', 'Helvetica', 'DejaVu Sans', sans-serif; text-anchor: middle; fill: #ffffff" x="71.253811" y="108.751866" transform="rotate(-0 71.253811 108.751866)">12%</text>
   </g>
   <g id="text_9">
    <text style="font-size: 11px; font-family: 'Arial', 'Helvetica', 'DejaVu Sans', sans-serif; text-anchor: end; fill: #2b3038" x="96.717892" y="58.522145" transform="rotate(-0 96.717892 58.522145)">C3</text>
   </g>
   <g id="text_10">
    <text style="font-weight: 700; font-size: 11px; font-family: 'Arial', 'Helvetica', 'DejaVu Sans', sans-serif; text-anchor: middle; fill: #ffffff" x="105.503985" y="86.23835" transform="rotate(-0 105.503985 86.23835)">6%</text>
   </g>
   <g id="text_11">
    <text style="font-size: 11px; font-family: 'Arial', 'Helvetica', 'DejaVu Sans', sans-serif; text-anchor: end; fill: #2b3038" x="121.877552" y="53.828932" transform="rotate(-0 121.877552 53.828932)">C4</text>
   </g>
   <g id="text_12">
    <text style="font-weight: 700; font-size: 17px; font-family: 'Arial', 'Helvetica', 'DejaVu Sans', sans-serif; text-anchor: middle" x="128.347826" y="20.117344" transform="rotate(-0 128.347826 20.117344)">Nearest training group</text>
   </g>
  </g>
  <g id="axes_2">
   <g id="patch_8">
    <path d="M 507.634951 227.77932 
C 522.345368 214.73469 532.743858 197.517498 537.442337 178.426058 
C 542.140816 159.33462 540.920483 139.257992 533.944243 120.876186 
C 526.968003 102.494379 514.560719 86.663401 498.37864 75.49653 
C 482.19656 64.329659 462.993266 58.346909 443.33217 58.346909 
L 443.332171 99.052579 
C 454.735607 99.052579 465.873518 102.522573 475.259124 108.999358 
C 484.64473 115.476144 491.840955 124.658111 495.887174 135.319559 
C 499.933393 145.981007 500.641186 157.625451 497.916068 168.698485 
C 495.190951 179.77152 489.159826 189.757491 480.627785 197.323377 
z
" style="fill: #c44e52; stroke: #ffffff; stroke-width: 1.8; stroke-linejoin: miter"/>
   </g>
   <g id="patch_9">
    <path d="M 420.171297 249.375333 
C 435.408399 253.125242 451.330691 253.119165 466.564926 249.357616 
C 481.799159 245.596066 495.894394 238.190398 507.634951 227.77932 
L 480.627785 197.323377 
C 473.818262 203.361802 465.643025 207.65709 456.80717 209.838788 
C 447.971314 212.020487 438.736385 212.024012 429.898865 209.849064 
z
" style="fill: #dd8452; stroke: #ffffff; stroke-width: 1.8; stroke-linejoin: miter"/>
   </g>
   <g id="patch_10">
    <path d="M 361.441174 207.101573 
C 368.071807 217.576622 376.651143 226.682818 386.712911 233.925246 
C 396.774678 241.167674 408.133237 246.412718 420.171297 249.375333 
L 429.898865 209.849064 
C 422.916791 208.130748 416.328826 205.088623 410.493001 200.888014 
C 404.657176 196.687406 399.681161 191.405812 395.835394 185.330283 
z
" style="fill: #ccb974; stroke: #ffffff; stroke-width: 1.8; stroke-linejoin: miter"/>
   </g>
   <g id="patch_11">
    <path d="M 348.188765 136.802194 
C 345.85553 148.825806 345.82251 161.18345 348.091443 173.21936 
C 350.360377 185.255269 354.890423 196.752716 361.441174 207.101573 
L 395.835394 185.330283 
C 392.035958 179.327947 389.408532 172.659428 388.09255 165.6786 
C 386.776569 158.697772 386.79572 151.530339 388.148997 144.556644 
z
" style="fill: #8172b3; stroke: #ffffff; stroke-width: 1.8; stroke-linejoin: miter"/>
   </g>
   <g id="patch_12">
    <path d="M 370.867144 90.907045 
C 365.12491 97.372601 360.273733 104.577682 356.442944 112.330208 
C 352.612154 120.082737 349.836088 128.313202 348.188765 136.802194 
L 388.148997 144.556644 
C 389.104444 139.633029 390.714562 134.859359 392.93642 130.362892 
C 395.158278 125.866427 397.971961 121.68748 401.302456 117.937458 
z
" style="fill: #55a868; stroke: #ffffff; stroke-width: 1.8; stroke-linejoin: miter"/>
   </g>
   <g id="patch_13">
    <path d="M 412.637628 63.335879 
C 404.623434 66.011764 396.993462 69.724182 389.941951 74.378625 
C 382.890439 79.033068 376.477741 84.589705 370.867144 90.907045 
L 401.302456 117.937458 
C 404.556603 114.2734 408.275968 111.050551 412.365844 108.350974 
C 416.455721 105.651397 420.881105 103.498194 425.529337 101.946181 
z
" style="fill: #937860; stroke: #ffffff; stroke-width: 1.8; stroke-linejoin: miter"/>
   </g>
   <g id="patch_14">
    <path d="M 443.332175 58.346909 
C 438.123975 58.346909 432.924239 58.766731 427.783501 59.602284 
C 422.642763 60.437837 417.57773 61.686413 412.637628 63.335879 
L 425.529337 101.946181 
C 428.394596 100.989491 431.332316 100.265317 434.313944 99.780696 
C 437.295572 99.296075 440.311418 99.052579 443.332175 99.052579 
z
" style="fill: #4c72b0; stroke: #ffffff; stroke-width: 1.8; stroke-linejoin: miter"/>
   </g>
   <g id="matplotlib.axis_3"/>
   <g id="matplotlib.axis_4"/>
   <g id="text_13">
    <text style="font-size: 11px; font-family: 'Arial', 'Helvetica', 'DejaVu Sans', sans-serif; text-anchor: start; fill: #2b3038" x="541.193209" y="121.160381" transform="rotate(-0 541.193209 121.160381)">Finance</text>
   </g>
   <g id="text_14">
    <text style="font-weight: 700; font-size: 11px; font-family: 'Arial', 'Helvetica', 'DejaVu Sans', sans-serif; text-anchor: middle; fill: #ffffff" x="514.009588" y="131.477076" transform="rotate(-0 514.009588 131.477076)">38%</text>
   </g>
   <g id="text_15">
    <text style="font-size: 11px; font-family: 'Arial', 'Helvetica', 'DejaVu Sans', sans-serif; text-anchor: start; fill: #2b3038" x="468.423546" y="259.920325" transform="rotate(-0 468.423546 259.920325)">Energy</text>
   </g>
   <g id="text_16">
    <text style="font-weight: 700; font-size: 11px; font-family: 'Arial', 'Helvetica', 'DejaVu Sans', sans-serif; text-anchor: middle; fill: #ffffff" x="461.45372" y="231.692591" transform="rotate(-0 461.45372 231.692591)">15%</text>
   </g>
   <g id="text_17">
    <text style="font-size: 11px; font-family: 'Arial', 'Helvetica', 'DejaVu Sans', sans-serif; text-anchor: end; fill: #2b3038" x="382.183348" y="243.253354" transform="rotate(-0 382.183348 243.253354)">Health</text>
   </g>
   <g id="text_18">
    <text style="font-weight: 700; font-size: 11px; font-family: 'Arial', 'Helvetica', 'DejaVu Sans', sans-serif; text-anchor: middle; fill: #ffffff" x="399.169133" y="219.655334" transform="rotate(-0 399.169133 219.655334)">12%</text>
   </g>
   <g id="text_19">
    <text style="font-size: 11px; font-family: 'Arial', 'Helvetica', 'DejaVu Sans', sans-serif; text-anchor: end; fill: #2b3038" x="340.472183" y="177.690984" transform="rotate(-0 340.472183 177.690984)">Retail/Web</text>
   </g>
   <g id="text_20">
    <text style="font-weight: 700; font-size: 11px; font-family: 'Arial', 'Helvetica', 'DejaVu Sans', sans-serif; text-anchor: middle; fill: #ffffff" x="369.044403" y="172.304734" transform="rotate(-0 369.044403 172.304734)">12%</text>
   </g>
   <g id="text_21">
    <text style="font-size: 11px; font-family: 'Arial', 'Helvetica', 'DejaVu Sans', sans-serif; text-anchor: end; fill: #2b3038" x="349.491805" y="111.930723" transform="rotate(-0 349.491805 111.930723)">Environment</text>
   </g>
   <g id="text_22">
    <text style="font-weight: 700; font-size: 11px; font-family: 'Arial', 'Helvetica', 'DejaVu Sans', sans-serif; text-anchor: middle; fill: #ffffff" x="375.558574" y="124.811212" transform="rotate(-0 375.558574 124.811212)">9%</text>
   </g>
   <g id="text_23">
    <text style="font-size: 11px; font-family: 'Arial', 'Helvetica', 'DejaVu Sans', sans-serif; text-anchor: end; fill: #2b3038" x="385.670776" y="70.942984" transform="rotate(-0 385.670776 70.942984)">Synthetic</text>
   </g>
   <g id="text_24">
    <text style="font-weight: 700; font-size: 11px; font-family: 'Arial', 'Helvetica', 'DejaVu Sans', sans-serif; text-anchor: middle; fill: #ffffff" x="401.687831" y="95.208956" transform="rotate(-0 401.687831 95.208956)">8%</text>
   </g>
   <g id="text_25">
    <text style="font-size: 11px; font-family: 'Arial', 'Helvetica', 'DejaVu Sans', sans-serif; text-anchor: end; fill: #2b3038" x="426.539607" y="54.984564" transform="rotate(-0 426.539607 54.984564)">Traffic</text>
   </g>
   <g id="text_26">
    <text style="font-weight: 700; font-size: 11px; font-family: 'Arial', 'Helvetica', 'DejaVu Sans', sans-serif; text-anchor: middle; fill: #ffffff" x="431.204209" y="83.68343" transform="rotate(-0 431.204209 83.68343)">5%</text>
   </g>
   <g id="text_27">
    <text style="font-weight: 700; font-size: 17px; font-family: 'Arial', 'Helvetica', 'DejaVu Sans', sans-serif; text-anchor: middle" x="443.332174" y="20.117344" transform="rotate(-0 443.332174 20.117344)">Nearest training domain</text>
   </g>
  </g>
 </g>
</svg>
