<?xml version="1.0" encoding="utf-8" standalone="no"?>
<!DOCTYPE svg PUBLIC "-//W3C//DTD SVG 1.1//EN"
  "http://www.w3.org/Graphics/SVG/1.1/DTD/svg11.dtd">
<svg xmlns:xlink="http://www.w3.org/1999/xlink" width="734.592953pt" height="462.401813pt" viewBox="0 0 734.592953 462.401813" xmlns="http://www.w3.org/2000/svg" version="1.1">
 <metadata>
  <rdf:RDF xmlns:dc="http://purl.org/dc/elements/1.1/" xmlns:cc="http://creativecommons.org/ns#" xmlns:rdf="http://www.w3.org/1999/02/22-rdf-syntax-ns#">
   <cc:Work>
    <dc:type rdf:resource="http://purl.org/dc/dcmitype/StillImage"/>
    <dc:date>2026-06-26T16:20:52.159548</dc:date>
    <dc:format>image/svg+xml</dc:format>
    <dc:creator>
     <cc:Agent>
      <dc:title>Matplotlib v3.10.9, https://matplotlib.org/</dc:title>
     </cc:Agent>
    </dc:creator>
   </cc:Work>
  </rdf:RDF>
 </metadata>
 <defs>
  <style type="text/css">*{stroke-linejoin: round; stroke-linecap: butt}</style>
 </defs>
 <g id="figure_1">
  <g id="patch_1">
   <path d="M 0 462.401813 
L 734.592953 462.401813 
L 734.592953 0 
L 0 0 
z
" style="fill: #ffffff"/>
  </g>
  <g id="axes_1">
   <g id="patch_2">
    <path d="M 132.877253 90.96416 
L 253.255427 90.96416 
L 253.255427 26.837812 
L 132.877253 26.837812 
z
" style="fill: #f6f5f2"/>
   </g>
   <g id="FillBetweenPolyCollection_1">
    <defs>
     <path id="mbca0fbb1eb" d="M 132.877253 -371.437653 
L 132.877253 -377.643428 
L 140.902465 -380.337767 
L 148.927677 -382.006062 
L 156.952888 -383.41824 
L 164.9781 -385.856454 
L 173.003311 -389.962183 
L 181.028523 -393.940243 
L 189.053735 -397.919087 
L 197.078946 -401.640248 
L 205.104158 -405.489856 
L 213.129369 -409.72482 
L 221.154581 -413.959783 
L 229.179793 -418.835433 
L 237.205004 -421.659004 
L 245.230216 -425.124044 
L 253.255427 -429.358224 
L 253.255427 -371.437653 
L 253.255427 -371.437653 
L 245.230216 -371.437653 
L 237.205004 -371.437653 
L 229.179793 -371.437653 
L 221.154581 -371.437653 
L 213.129369 -371.437653 
L 205.104158 -371.437653 
L 197.078946 -371.437653 
L 189.053735 -371.437653 
L 181.028523 -371.437653 
L 173.003311 -371.437653 
L 164.9781 -371.437653 
L 156.952888 -371.437653 
L 148.927677 -371.437653 
L 140.902465 -371.437653 
L 132.877253 -371.437653 
z
"/>
    </defs>
    <g clip-path="url(#pefb1c0f627)">
     <use xlink:href="#mbca0fbb1eb" x="0" y="462.401813" style="fill: #b5403f; fill-opacity: 0.14"/>
    </g>
   </g>
   <g id="matplotlib.axis_1"/>
   <g id="matplotlib.axis_2"/>
   <g id="line2d_1">
    <path d="M 132.877253 84.758384 
L 140.902465 82.064045 
L 148.927677 80.395751 
L 156.952888 78.983573 
L 164.9781 76.545358 
L 173.003311 72.439629 
L 181.028523 68.461569 
L 189.053735 64.482725 
L 197.078946 60.761565 
L 205.104158 56.911957 
L 213.129369 52.676992 
L 221.154581 48.442029 
L 229.179793 43.56638 
L 237.205004 40.742809 
L 245.230216 37.277769 
L 253.255427 33.043588 
" clip-path="url(#pefb1c0f627)" style="fill: none; stroke: #b5403f; stroke-width: 2.6; stroke-linecap: round"/>
   </g>
   <g id="patch_3">
    <path d="M 132.877253 90.96416 
L 132.877253 26.837812 
" style="fill: none; stroke: #d9c2bf; stroke-width: 0.9; stroke-linejoin: miter; stroke-linecap: square"/>
   </g>
   <g id="patch_4">
    <path d="M 253.255427 90.96416 
L 253.255427 26.837812 
" style="fill: none; stroke: #d9c2bf; stroke-width: 0.9; stroke-linejoin: miter; stroke-linecap: square"/>
   </g>
   <g id="patch_5">
    <path d="M 132.877253 90.96416 
L 253.255427 90.96416 
" style="fill: none; stroke: #d9c2bf; stroke-width: 0.9; stroke-linejoin: miter; stroke-linecap: square"/>
   </g>
   <g id="patch_6">
    <path d="M 132.877253 26.837812 
L 253.255427 26.837812 
" style="fill: none; stroke: #d9c2bf; stroke-width: 0.9; stroke-linejoin: miter; stroke-linecap: square"/>
   </g>
   <g id="text_1">
    <text style="font-weight: 700; font-size: 15px; font-family: 'Arial', 'Helvetica', 'DejaVu Sans', sans-serif; text-anchor: end; fill: #1f2933" x="124.450781" y="52.779833" transform="rotate(-0 124.450781 52.779833)">Gradual rise</text>
   </g>
   <g id="text_2">
    <text style="font-size: 9px; font-family: 'Arial', 'Helvetica', 'DejaVu Sans', sans-serif; text-anchor: end; fill: #b0b5bd" x="124.450781" y="67.797058" transform="rotate(-0 124.450781 67.797058)">Unseen dataset</text>
   </g>
   <g id="text_3">
    <text style="font-weight: 500; font-size: 12px; font-family: 'Arial', 'Helvetica', 'DejaVu Sans', sans-serif; text-anchor: end; fill: #6b7280" x="124.450781" y="81.45014" transform="rotate(-0 124.450781 81.45014)">Weather</text>
   </g>
   <g id="text_4">
    <text style="font-weight: 700; font-size: 14px; font-family: 'Arial', 'Helvetica', 'DejaVu Sans', sans-serif; text-anchor: middle; fill: #b5403f" x="193.06634" y="17.837812" transform="rotate(-0 193.06634 17.837812)">Unseen test patch</text>
   </g>
  </g>
  <g id="axes_2">
   <g id="patch_7">
    <path d="M 267.491513 58.900986 
Q 279.821711 58.900986 289.91584 58.900986 
" style="fill: none; stroke: #5b6470; stroke-width: 2; stroke-linecap: round"/>
    <path d="M 285.91584 56.900986 
L 289.91584 58.900986 
L 285.91584 60.900986 
z
" style="fill: #5b6470; stroke: #5b6470; stroke-width: 2; stroke-linecap: round"/>
   </g>
  </g>
  <g id="axes_3">
   <g id="patch_8">
    <path d="M 307.316463 90.96416 
L 403.619002 90.96416 
L 403.619002 26.837812 
L 307.316463 26.837812 
z
" style="fill: #ffffff"/>
   </g>
   <g id="FillBetweenPolyCollection_2">
    <defs>
     <path id="m7f515e63b3" d="M 307.316463 -371.437653 
L 307.316463 -377.643428 
L 313.736632 -380.863755 
L 320.156801 -387.493866 
L 326.576971 -389.640758 
L 332.99714 -392.166508 
L 339.417309 -393.871393 
L 345.837478 -395.955138 
L 352.257648 -400.375207 
L 358.677817 -404.668981 
L 365.097986 -407.447313 
L 371.518155 -410.983371 
L 377.938325 -414.393134 
L 384.358494 -417.171465 
L 390.778663 -421.149528 
L 397.198833 -424.243572 
L 403.619002 -429.358224 
L 403.619002 -371.437653 
L 403.619002 -371.437653 
L 397.198833 -371.437653 
L 390.778663 -371.437653 
L 384.358494 -371.437653 
L 377.938325 -371.437653 
L 371.518155 -371.437653 
L 365.097986 -371.437653 
L 358.677817 -371.437653 
L 352.257648 -371.437653 
L 345.837478 -371.437653 
L 339.417309 -371.437653 
L 332.99714 -371.437653 
L 326.576971 -371.437653 
L 320.156801 -371.437653 
L 313.736632 -371.437653 
L 307.316463 -371.437653 
z
"/>
    </defs>
    <g clip-path="url(#p5e6bca90e3)">
     <use xlink:href="#m7f515e63b3" x="0" y="462.401813" style="fill: #ccb974; fill-opacity: 0.22"/>
    </g>
   </g>
   <g id="matplotlib.axis_3"/>
   <g id="matplotlib.axis_4"/>
   <g id="line2d_2">
    <path d="M 307.316463 84.758384 
L 313.736632 81.538057 
L 320.156801 74.907947 
L 326.576971 72.761055 
L 332.99714 70.235305 
L 339.417309 68.530419 
L 345.837478 66.446675 
L 352.257648 62.026605 
L 358.677817 57.732831 
L 365.097986 54.954499 
L 371.518155 51.418441 
L 377.938325 48.008679 
L 384.358494 45.230347 
L 390.778663 41.252284 
L 397.198833 38.15824 
L 403.619002 33.043588 
" clip-path="url(#p5e6bca90e3)" style="fill: none; stroke: #2b3038; stroke-width: 2.2; stroke-linecap: round"/>
   </g>
   <g id="patch_9">
    <path d="M 307.316463 90.96416 
L 307.316463 26.837812 
" style="fill: none; stroke: #cfd4dc; stroke-width: 0.8; stroke-linejoin: miter; stroke-linecap: square"/>
   </g>
   <g id="patch_10">
    <path d="M 403.619002 90.96416 
L 403.619002 26.837812 
" style="fill: none; stroke: #cfd4dc; stroke-width: 0.8; stroke-linejoin: miter; stroke-linecap: square"/>
   </g>
   <g id="patch_11">
    <path d="M 307.316463 90.96416 
L 403.619002 90.96416 
" style="fill: none; stroke: #cfd4dc; stroke-width: 0.8; stroke-linejoin: miter; stroke-linecap: square"/>
   </g>
   <g id="patch_12">
    <path d="M 307.316463 26.837812 
L 403.619002 26.837812 
" style="fill: none; stroke: #cfd4dc; stroke-width: 0.8; stroke-linejoin: miter; stroke-linecap: square"/>
   </g>
   <g id="text_5">
    <text style="font-weight: 700; font-size: 13px; font-family: 'Arial', 'Helvetica', 'DejaVu Sans', sans-serif; text-anchor: middle; fill: #ccb974" x="355.467732" y="20.837812" transform="rotate(-0 355.467732 20.837812)">Health</text>
   </g>
  </g>
  <g id="axes_4">
   <g id="patch_13">
    <path d="M 415.241113 90.96416 
L 511.543652 90.96416 
L 511.543652 26.837812 
L 415.241113 26.837812 
z
" style="fill: #ffffff"/>
   </g>
   <g id="FillBetweenPolyCollection_3">
    <defs>
     <path id="me2252c62fb" d="M 415.241113 -371.437653 
L 415.241113 -377.643428 
L 421.661283 -384.021722 
L 428.081452 -388.306333 
L 434.501621 -394.166539 
L 440.92179 -393.294381 
L 447.34196 -395.123884 
L 453.762129 -401.270608 
L 460.182298 -399.172078 
L 466.602467 -406.342199 
L 473.022637 -410.577451 
L 479.442806 -410.456445 
L 485.862975 -417.534283 
L 492.283145 -423.417568 
L 498.703314 -421.37799 
L 505.123483 -426.549823 
L 511.543652 -429.358224 
L 511.543652 -371.437653 
L 511.543652 -371.437653 
L 505.123483 -371.437653 
L 498.703314 -371.437653 
L 492.283145 -371.437653 
L 485.862975 -371.437653 
L 479.442806 -371.437653 
L 473.022637 -371.437653 
L 466.602467 -371.437653 
L 460.182298 -371.437653 
L 453.762129 -371.437653 
L 447.34196 -371.437653 
L 440.92179 -371.437653 
L 434.501621 -371.437653 
L 428.081452 -371.437653 
L 421.661283 -371.437653 
L 415.241113 -371.437653 
z
"/>
    </defs>
    <g clip-path="url(#pb0e9fd6a17)">
     <use xlink:href="#me2252c62fb" x="0" y="462.401813" style="fill: #c44e52; fill-opacity: 0.22"/>
    </g>
   </g>
   <g id="matplotlib.axis_5"/>
   <g id="matplotlib.axis_6"/>
   <g id="line2d_3">
    <path d="M 415.241113 84.758384 
L 421.661283 78.38009 
L 428.081452 74.095479 
L 434.501621 68.235274 
L 440.92179 69.107431 
L 447.34196 67.277929 
L 453.762129 61.131205 
L 460.182298 63.229735 
L 466.602467 56.059613 
L 473.022637 51.824361 
L 479.442806 51.945368 
L 485.862975 44.86753 
L 492.283145 38.984244 
L 498.703314 41.023823 
L 505.123483 35.851989 
L 511.543652 33.043588 
" clip-path="url(#pb0e9fd6a17)" style="fill: none; stroke: #2b3038; stroke-width: 2.2; stroke-linecap: round"/>
   </g>
   <g id="patch_14">
    <path d="M 415.241113 90.96416 
L 415.241113 26.837812 
" style="fill: none; stroke: #cfd4dc; stroke-width: 0.8; stroke-linejoin: miter; stroke-linecap: square"/>
   </g>
   <g id="patch_15">
    <path d="M 511.543652 90.96416 
L 511.543652 26.837812 
" style="fill: none; stroke: #cfd4dc; stroke-width: 0.8; stroke-linejoin: miter; stroke-linecap: square"/>
   </g>
   <g id="patch_16">
    <path d="M 415.241113 90.96416 
L 511.543652 90.96416 
" style="fill: none; stroke: #cfd4dc; stroke-width: 0.8; stroke-linejoin: miter; stroke-linecap: square"/>
   </g>
   <g id="patch_17">
    <path d="M 415.241113 26.837812 
L 511.543652 26.837812 
" style="fill: none; stroke: #cfd4dc; stroke-width: 0.8; stroke-linejoin: miter; stroke-linecap: square"/>
   </g>
   <g id="text_6">
    <text style="font-weight: 700; font-size: 13px; font-family: 'Arial', 'Helvetica', 'DejaVu Sans', sans-serif; text-anchor: middle; fill: #c44e52" x="463.392383" y="20.837812" transform="rotate(-0 463.392383 20.837812)">Finance</text>
   </g>
  </g>
  <g id="axes_5">
   <g id="patch_18">
    <path d="M 523.165764 90.96416 
L 619.468303 90.96416 
L 619.468303 26.837812 
L 523.165764 26.837812 
z
" style="fill: #ffffff"/>
   </g>
   <g id="FillBetweenPolyCollection_4">
    <defs>
     <path id="m235b7bab47" d="M 523.165764 -371.437653 
L 523.165764 -391.638632 
L 529.585933 -392.054915 
L 536.006102 -392.679251 
L 542.426272 -377.643428 
L 548.846441 -385.447466 
L 555.26661 -400.899448 
L 561.686779 -399.234636 
L 568.106949 -402.148099 
L 574.527118 -411.669035 
L 580.947287 -413.802093 
L 587.367457 -416.559585 
L 593.787626 -422.958904 
L 600.207795 -402.200161 
L 606.627964 -416.767617 
L 613.048134 -429.254078 
L 619.468303 -429.358224 
L 619.468303 -371.437653 
L 619.468303 -371.437653 
L 613.048134 -371.437653 
L 606.627964 -371.437653 
L 600.207795 -371.437653 
L 593.787626 -371.437653 
L 587.367457 -371.437653 
L 580.947287 -371.437653 
L 574.527118 -371.437653 
L 568.106949 -371.437653 
L 561.686779 -371.437653 
L 555.26661 -371.437653 
L 548.846441 -371.437653 
L 542.426272 -371.437653 
L 536.006102 -371.437653 
L 529.585933 -371.437653 
L 523.165764 -371.437653 
z
"/>
    </defs>
    <g clip-path="url(#pf20fc005bd)">
     <use xlink:href="#m235b7bab47" x="0" y="462.401813" style="fill: #55a868; fill-opacity: 0.22"/>
    </g>
   </g>
   <g id="matplotlib.axis_7"/>
   <g id="matplotlib.axis_8"/>
   <g id="line2d_4">
    <path d="M 523.165764 70.763181 
L 529.585933 70.346898 
L 536.006102 69.722561 
L 542.426272 84.758384 
L 548.846441 76.954347 
L 555.26661 61.502364 
L 561.686779 63.167177 
L 568.106949 60.253713 
L 574.527118 50.732778 
L 580.947287 48.59972 
L 587.367457 45.842228 
L 593.787626 39.442908 
L 600.207795 60.201652 
L 606.627964 45.634195 
L 613.048134 33.147735 
L 619.468303 33.043588 
" clip-path="url(#pf20fc005bd)" style="fill: none; stroke: #2b3038; stroke-width: 2.2; stroke-linecap: round"/>
   </g>
   <g id="patch_19">
    <path d="M 523.165764 90.96416 
L 523.165764 26.837812 
" style="fill: none; stroke: #cfd4dc; stroke-width: 0.8; stroke-linejoin: miter; stroke-linecap: square"/>
   </g>
   <g id="patch_20">
    <path d="M 619.468303 90.96416 
L 619.468303 26.837812 
" style="fill: none; stroke: #cfd4dc; stroke-width: 0.8; stroke-linejoin: miter; stroke-linecap: square"/>
   </g>
   <g id="patch_21">
    <path d="M 523.165764 90.96416 
L 619.468303 90.96416 
" style="fill: none; stroke: #cfd4dc; stroke-width: 0.8; stroke-linejoin: miter; stroke-linecap: square"/>
   </g>
   <g id="patch_22">
    <path d="M 523.165764 26.837812 
L 619.468303 26.837812 
" style="fill: none; stroke: #cfd4dc; stroke-width: 0.8; stroke-linejoin: miter; stroke-linecap: square"/>
   </g>
   <g id="text_7">
    <text style="font-weight: 700; font-size: 13px; font-family: 'Arial', 'Helvetica', 'DejaVu Sans', sans-serif; text-anchor: middle; fill: #55a868" x="571.317033" y="20.837812" transform="rotate(-0 571.317033 20.837812)">Environment</text>
   </g>
  </g>
  <g id="axes_6">
   <g id="patch_23">
    <path d="M 631.090414 90.96416 
L 727.392953 90.96416 
L 727.392953 26.837812 
L 631.090414 26.837812 
z
" style="fill: #ffffff"/>
   </g>
   <g id="FillBetweenPolyCollection_5">
    <defs>
     <path id="m65898fb549" d="M 631.090414 -371.437653 
L 631.090414 -377.643428 
L 637.510584 -385.09196 
L 643.930753 -390.58787 
L 650.350922 -397.867561 
L 656.771091 -398.031983 
L 663.191261 -404.618996 
L 669.61143 -408.400589 
L 676.031599 -411.939135 
L 682.451769 -413.596042 
L 688.871938 -419.776786 
L 695.292107 -421.341043 
L 701.712276 -423.359297 
L 708.132446 -423.180216 
L 714.552615 -425.227531 
L 720.972784 -426.73816 
L 727.392953 -429.358224 
L 727.392953 -371.437653 
L 727.392953 -371.437653 
L 720.972784 -371.437653 
L 714.552615 -371.437653 
L 708.132446 -371.437653 
L 701.712276 -371.437653 
L 695.292107 -371.437653 
L 688.871938 -371.437653 
L 682.451769 -371.437653 
L 676.031599 -371.437653 
L 669.61143 -371.437653 
L 663.191261 -371.437653 
L 656.771091 -371.437653 
L 650.350922 -371.437653 
L 643.930753 -371.437653 
L 637.510584 -371.437653 
L 631.090414 -371.437653 
z
"/>
    </defs>
    <g clip-path="url(#p5b4a49bd6b)">
     <use xlink:href="#m65898fb549" x="0" y="462.401813" style="fill: #dd8452; fill-opacity: 0.22"/>
    </g>
   </g>
   <g id="matplotlib.axis_9"/>
   <g id="matplotlib.axis_10"/>
   <g id="line2d_5">
    <path d="M 631.090414 84.758384 
L 637.510584 77.309852 
L 643.930753 71.813942 
L 650.350922 64.534252 
L 656.771091 64.369829 
L 663.191261 57.782816 
L 669.61143 54.001223 
L 676.031599 50.462677 
L 682.451769 48.80577 
L 688.871938 42.625027 
L 695.292107 41.060769 
L 701.712276 39.042515 
L 708.132446 39.221597 
L 714.552615 37.174282 
L 720.972784 35.663652 
L 727.392953 33.043588 
" clip-path="url(#p5b4a49bd6b)" style="fill: none; stroke: #2b3038; stroke-width: 2.2; stroke-linecap: round"/>
   </g>
   <g id="patch_24">
    <path d="M 631.090414 90.96416 
L 631.090414 26.837812 
" style="fill: none; stroke: #cfd4dc; stroke-width: 0.8; stroke-linejoin: miter; stroke-linecap: square"/>
   </g>
   <g id="patch_25">
    <path d="M 727.392953 90.96416 
L 727.392953 26.837812 
" style="fill: none; stroke: #cfd4dc; stroke-width: 0.8; stroke-linejoin: miter; stroke-linecap: square"/>
   </g>
   <g id="patch_26">
    <path d="M 631.090414 90.96416 
L 727.392953 90.96416 
" style="fill: none; stroke: #cfd4dc; stroke-width: 0.8; stroke-linejoin: miter; stroke-linecap: square"/>
   </g>
   <g id="patch_27">
    <path d="M 631.090414 26.837812 
L 727.392953 26.837812 
" style="fill: none; stroke: #cfd4dc; stroke-width: 0.8; stroke-linejoin: miter; stroke-linecap: square"/>
   </g>
   <g id="text_8">
    <text style="font-weight: 700; font-size: 13px; font-family: 'Arial', 'Helvetica', 'DejaVu Sans', sans-serif; text-anchor: middle; fill: #dd8452" x="679.241684" y="20.837812" transform="rotate(-0 679.241684 20.837812)">Energy</text>
   </g>
  </g>
  <g id="axes_7">
   <g id="patch_28">
    <path d="M 132.877253 182.023573 
L 253.255427 182.023573 
L 253.255427 117.897226 
L 132.877253 117.897226 
z
" style="fill: #f6f5f2"/>
   </g>
   <g id="FillBetweenPolyCollection_6">
    <defs>
     <path id="m1b3a07a748" d="M 132.877253 -280.37824 
L 132.877253 -286.584015 
L 140.902465 -295.204783 
L 148.927677 -308.140835 
L 156.952888 -316.751797 
L 164.9781 -316.751797 
L 173.003311 -329.68785 
L 181.028523 -329.68785 
L 189.053735 -329.68785 
L 197.078946 -329.68785 
L 205.104158 -329.68785 
L 213.129369 -338.298811 
L 221.154581 -338.298811 
L 229.179793 -333.993331 
L 237.205004 -325.372566 
L 245.230216 -321.057278 
L 253.255427 -321.057278 
L 253.255427 -280.37824 
L 253.255427 -280.37824 
L 245.230216 -280.37824 
L 237.205004 -280.37824 
L 229.179793 -280.37824 
L 221.154581 -280.37824 
L 213.129369 -280.37824 
L 205.104158 -280.37824 
L 197.078946 -280.37824 
L 189.053735 -280.37824 
L 181.028523 -280.37824 
L 173.003311 -280.37824 
L 164.9781 -280.37824 
L 156.952888 -280.37824 
L 148.927677 -280.37824 
L 140.902465 -280.37824 
L 132.877253 -280.37824 
z
"/>
    </defs>
    <g clip-path="url(#p1d8dd50051)">
     <use xlink:href="#m1b3a07a748" x="0" y="462.401813" style="fill: #b5403f; fill-opacity: 0.14"/>
    </g>
   </g>
   <g id="matplotlib.axis_11"/>
   <g id="matplotlib.axis_12"/>
   <g id="line2d_6">
    <path d="M 132.877253 175.817797 
L 140.902465 167.19703 
L 148.927677 154.260978 
L 156.952888 145.650016 
L 164.9781 145.650016 
L 173.003311 132.713963 
L 181.028523 132.713963 
L 189.053735 132.713963 
L 197.078946 132.713963 
L 205.104158 132.713963 
L 213.129369 124.103001 
L 221.154581 124.103001 
L 229.179793 128.408481 
L 237.205004 137.029246 
L 245.230216 141.344534 
L 253.255427 141.344534 
" clip-path="url(#p1d8dd50051)" style="fill: none; stroke: #b5403f; stroke-width: 2.6; stroke-linecap: round"/>
   </g>
   <g id="patch_29">
    <path d="M 132.877253 182.023573 
L 132.877253 117.897226 
" style="fill: none; stroke: #d9c2bf; stroke-width: 0.9; stroke-linejoin: miter; stroke-linecap: square"/>
   </g>
   <g id="patch_30">
    <path d="M 253.255427 182.023573 
L 253.255427 117.897226 
" style="fill: none; stroke: #d9c2bf; stroke-width: 0.9; stroke-linejoin: miter; stroke-linecap: square"/>
   </g>
   <g id="patch_31">
    <path d="M 132.877253 182.023573 
L 253.255427 182.023573 
" style="fill: none; stroke: #d9c2bf; stroke-width: 0.9; stroke-linejoin: miter; stroke-linecap: square"/>
   </g>
   <g id="patch_32">
    <path d="M 132.877253 117.897226 
L 253.255427 117.897226 
" style="fill: none; stroke: #d9c2bf; stroke-width: 0.9; stroke-linejoin: miter; stroke-linecap: square"/>
   </g>
   <g id="text_9">
    <text style="font-weight: 700; font-size: 15px; font-family: 'Arial', 'Helvetica', 'DejaVu Sans', sans-serif; text-anchor: end; fill: #1f2933" x="124.450781" y="143.839246" transform="rotate(-0 124.450781 143.839246)">Central peak</text>
   </g>
   <g id="text_10">
    <text style="font-size: 9px; font-family: 'Arial', 'Helvetica', 'DejaVu Sans', sans-serif; text-anchor: end; fill: #b0b5bd" x="124.450781" y="158.856472" transform="rotate(-0 124.450781 158.856472)">Unseen dataset</text>
   </g>
   <g id="text_11">
    <text style="font-weight: 500; font-size: 12px; font-family: 'Arial', 'Helvetica', 'DejaVu Sans', sans-serif; text-anchor: end; fill: #6b7280" x="124.450781" y="172.509554" transform="rotate(-0 124.450781 172.509554)">ETTh2</text>
   </g>
  </g>
  <g id="axes_8">
   <g id="patch_33">
    <path d="M 267.491513 149.960399 
Q 279.821711 149.960399 289.91584 149.960399 
" style="fill: none; stroke: #5b6470; stroke-width: 2; stroke-linecap: round"/>
    <path d="M 285.91584 147.960399 
L 289.91584 149.960399 
L 285.91584 151.960399 
z
" style="fill: #5b6470; stroke: #5b6470; stroke-width: 2; stroke-linecap: round"/>
   </g>
  </g>
  <g id="axes_9">
   <g id="patch_34">
    <path d="M 307.316463 182.023573 
L 403.619002 182.023573 
L 403.619002 117.897226 
L 307.316463 117.897226 
z
" style="fill: #ffffff"/>
   </g>
   <g id="FillBetweenPolyCollection_7">
    <defs>
     <path id="m21a3b28280" d="M 307.316463 -280.37824 
L 307.316463 -323.787796 
L 313.736632 -325.949014 
L 320.156801 -325.17715 
L 326.576971 -331.352046 
L 332.99714 -329.036465 
L 339.417309 -328.418976 
L 345.837478 -333.822014 
L 352.257648 -336.137595 
L 358.677817 -338.298811 
L 365.097986 -336.755083 
L 371.518155 -335.211367 
L 377.938325 -320.54597 
L 384.358494 -313.753579 
L 390.778663 -306.806818 
L 397.198833 -294.148269 
L 403.619002 -286.584015 
L 403.619002 -280.37824 
L 403.619002 -280.37824 
L 397.198833 -280.37824 
L 390.778663 -280.37824 
L 384.358494 -280.37824 
L 377.938325 -280.37824 
L 371.518155 -280.37824 
L 365.097986 -280.37824 
L 358.677817 -280.37824 
L 352.257648 -280.37824 
L 345.837478 -280.37824 
L 339.417309 -280.37824 
L 332.99714 -280.37824 
L 326.576971 -280.37824 
L 320.156801 -280.37824 
L 313.736632 -280.37824 
L 307.316463 -280.37824 
z
"/>
    </defs>
    <g clip-path="url(#p924274c09b)">
     <use xlink:href="#m21a3b28280" x="0" y="462.401813" style="fill: #4c72b0; fill-opacity: 0.22"/>
    </g>
   </g>
   <g id="matplotlib.axis_13"/>
   <g id="matplotlib.axis_14"/>
   <g id="line2d_7">
    <path d="M 307.316463 138.614017 
L 313.736632 136.452799 
L 320.156801 137.224663 
L 326.576971 131.049766 
L 332.99714 133.365347 
L 339.417309 133.982837 
L 345.837478 128.579798 
L 352.257648 126.264218 
L 358.677817 124.103001 
L 365.097986 125.646729 
L 371.518155 127.190445 
L 377.938325 141.855843 
L 384.358494 148.648234 
L 390.778663 155.594994 
L 397.198833 168.253543 
L 403.619002 175.817797 
" clip-path="url(#p924274c09b)" style="fill: none; stroke: #2b3038; stroke-width: 2.2; stroke-linecap: round"/>
   </g>
   <g id="patch_35">
    <path d="M 307.316463 182.023573 
L 307.316463 117.897226 
" style="fill: none; stroke: #cfd4dc; stroke-width: 0.8; stroke-linejoin: miter; stroke-linecap: square"/>
   </g>
   <g id="patch_36">
    <path d="M 403.619002 182.023573 
L 403.619002 117.897226 
" style="fill: none; stroke: #cfd4dc; stroke-width: 0.8; stroke-linejoin: miter; stroke-linecap: square"/>
   </g>
   <g id="patch_37">
    <path d="M 307.316463 182.023573 
L 403.619002 182.023573 
" style="fill: none; stroke: #cfd4dc; stroke-width: 0.8; stroke-linejoin: miter; stroke-linecap: square"/>
   </g>
   <g id="patch_38">
    <path d="M 307.316463 117.897226 
L 403.619002 117.897226 
" style="fill: none; stroke: #cfd4dc; stroke-width: 0.8; stroke-linejoin: miter; stroke-linecap: square"/>
   </g>
   <g id="text_12">
    <text style="font-weight: 700; font-size: 13px; font-family: 'Arial', 'Helvetica', 'DejaVu Sans', sans-serif; text-anchor: middle; fill: #4c72b0" x="355.467732" y="111.897226" transform="rotate(-0 355.467732 111.897226)">Traffic</text>
   </g>
  </g>
  <g id="axes_10">
   <g id="patch_39">
    <path d="M 415.241113 182.023573 
L 511.543652 182.023573 
L 511.543652 117.897226 
L 415.241113 117.897226 
z
" style="fill: #ffffff"/>
   </g>
   <g id="FillBetweenPolyCollection_8">
    <defs>
     <path id="m7cf46e91cb" d="M 415.241113 -280.37824 
L 415.241113 -293.233072 
L 421.661283 -296.926985 
L 428.081452 -286.584015 
L 434.501621 -303.575986 
L 440.92179 -322.045557 
L 447.34196 -322.045557 
L 453.762129 -325.000698 
L 460.182298 -333.866128 
L 466.602467 -327.21707 
L 473.022637 -333.866128 
L 479.442806 -337.560039 
L 485.862975 -338.298811 
L 492.283145 -332.388528 
L 498.703314 -333.866128 
L 505.123483 -333.866128 
L 511.543652 -328.694613 
L 511.543652 -280.37824 
L 511.543652 -280.37824 
L 505.123483 -280.37824 
L 498.703314 -280.37824 
L 492.283145 -280.37824 
L 485.862975 -280.37824 
L 479.442806 -280.37824 
L 473.022637 -280.37824 
L 466.602467 -280.37824 
L 460.182298 -280.37824 
L 453.762129 -280.37824 
L 447.34196 -280.37824 
L 440.92179 -280.37824 
L 434.501621 -280.37824 
L 428.081452 -280.37824 
L 421.661283 -280.37824 
L 415.241113 -280.37824 
z
"/>
    </defs>
    <g clip-path="url(#peabf6ebdc9)">
     <use xlink:href="#m7cf46e91cb" x="0" y="462.401813" style="fill: #c44e52; fill-opacity: 0.22"/>
    </g>
   </g>
   <g id="matplotlib.axis_15"/>
   <g id="matplotlib.axis_16"/>
   <g id="line2d_8">
    <path d="M 415.241113 169.16874 
L 421.661283 165.474827 
L 428.081452 175.817797 
L 434.501621 158.825827 
L 440.92179 140.356256 
L 447.34196 140.356256 
L 453.762129 137.401114 
L 460.182298 128.535685 
L 466.602467 135.184742 
L 473.022637 128.535685 
L 479.442806 124.841773 
L 485.862975 124.103001 
L 492.283145 130.013285 
L 498.703314 128.535685 
L 505.123483 128.535685 
L 511.543652 133.7072 
" clip-path="url(#peabf6ebdc9)" style="fill: none; stroke: #2b3038; stroke-width: 2.2; stroke-linecap: round"/>
   </g>
   <g id="patch_40">
    <path d="M 415.241113 182.023573 
L 415.241113 117.897226 
" style="fill: none; stroke: #cfd4dc; stroke-width: 0.8; stroke-linejoin: miter; stroke-linecap: square"/>
   </g>
   <g id="patch_41">
    <path d="M 511.543652 182.023573 
L 511.543652 117.897226 
" style="fill: none; stroke: #cfd4dc; stroke-width: 0.8; stroke-linejoin: miter; stroke-linecap: square"/>
   </g>
   <g id="patch_42">
    <path d="M 415.241113 182.023573 
L 511.543652 182.023573 
" style="fill: none; stroke: #cfd4dc; stroke-width: 0.8; stroke-linejoin: miter; stroke-linecap: square"/>
   </g>
   <g id="patch_43">
    <path d="M 415.241113 117.897226 
L 511.543652 117.897226 
" style="fill: none; stroke: #cfd4dc; stroke-width: 0.8; stroke-linejoin: miter; stroke-linecap: square"/>
   </g>
   <g id="text_13">
    <text style="font-weight: 700; font-size: 13px; font-family: 'Arial', 'Helvetica', 'DejaVu Sans', sans-serif; text-anchor: middle; fill: #c44e52" x="463.392383" y="111.897226" transform="rotate(-0 463.392383 111.897226)">Finance</text>
   </g>
  </g>
  <g id="axes_11">
   <g id="patch_44">
    <path d="M 523.165764 182.023573 
L 619.468303 182.023573 
L 619.468303 117.897226 
L 523.165764 117.897226 
z
" style="fill: #ffffff"/>
   </g>
   <g id="FillBetweenPolyCollection_9">
    <defs>
     <path id="m310c99dc82" d="M 523.165764 -280.37824 
L 523.165764 -286.584015 
L 529.585933 -296.727496 
L 536.006102 -311.10272 
L 542.426272 -325.617556 
L 548.846441 -336.157285 
L 555.26661 -338.298811 
L 561.686779 -333.573015 
L 568.106949 -328.975754 
L 574.527118 -323.143415 
L 580.947287 -316.266653 
L 587.367457 -310.607056 
L 593.787626 -305.956379 
L 600.207795 -302.202969 
L 606.627964 -300.550916 
L 613.048134 -298.674813 
L 619.468303 -296.767197 
L 619.468303 -280.37824 
L 619.468303 -280.37824 
L 613.048134 -280.37824 
L 606.627964 -280.37824 
L 600.207795 -280.37824 
L 593.787626 -280.37824 
L 587.367457 -280.37824 
L 580.947287 -280.37824 
L 574.527118 -280.37824 
L 568.106949 -280.37824 
L 561.686779 -280.37824 
L 555.26661 -280.37824 
L 548.846441 -280.37824 
L 542.426272 -280.37824 
L 536.006102 -280.37824 
L 529.585933 -280.37824 
L 523.165764 -280.37824 
z
"/>
    </defs>
    <g clip-path="url(#pdcb4cbb3ce)">
     <use xlink:href="#m310c99dc82" x="0" y="462.401813" style="fill: #dd8452; fill-opacity: 0.22"/>
    </g>
   </g>
   <g id="matplotlib.axis_17"/>
   <g id="matplotlib.axis_18"/>
   <g id="line2d_9">
    <path d="M 523.165764 175.817797 
L 529.585933 165.674316 
L 536.006102 151.299093 
L 542.426272 136.784256 
L 548.846441 126.244528 
L 555.26661 124.103001 
L 561.686779 128.828797 
L 568.106949 133.426059 
L 574.527118 139.258398 
L 580.947287 146.13516 
L 587.367457 151.794757 
L 593.787626 156.445434 
L 600.207795 160.198844 
L 606.627964 161.850896 
L 613.048134 163.726999 
L 619.468303 165.634616 
" clip-path="url(#pdcb4cbb3ce)" style="fill: none; stroke: #2b3038; stroke-width: 2.2; stroke-linecap: round"/>
   </g>
   <g id="patch_45">
    <path d="M 523.165764 182.023573 
L 523.165764 117.897226 
" style="fill: none; stroke: #cfd4dc; stroke-width: 0.8; stroke-linejoin: miter; stroke-linecap: square"/>
   </g>
   <g id="patch_46">
    <path d="M 619.468303 182.023573 
L 619.468303 117.897226 
" style="fill: none; stroke: #cfd4dc; stroke-width: 0.8; stroke-linejoin: miter; stroke-linecap: square"/>
   </g>
   <g id="patch_47">
    <path d="M 523.165764 182.023573 
L 619.468303 182.023573 
" style="fill: none; stroke: #cfd4dc; stroke-width: 0.8; stroke-linejoin: miter; stroke-linecap: square"/>
   </g>
   <g id="patch_48">
    <path d="M 523.165764 117.897226 
L 619.468303 117.897226 
" style="fill: none; stroke: #cfd4dc; stroke-width: 0.8; stroke-linejoin: miter; stroke-linecap: square"/>
   </g>
   <g id="text_14">
    <text style="font-weight: 700; font-size: 13px; font-family: 'Arial', 'Helvetica', 'DejaVu Sans', sans-serif; text-anchor: middle; fill: #dd8452" x="571.317033" y="111.897226" transform="rotate(-0 571.317033 111.897226)">Energy</text>
   </g>
  </g>
  <g id="axes_12">
   <g id="patch_49">
    <path d="M 631.090414 182.023573 
L 727.392953 182.023573 
L 727.392953 117.897226 
L 631.090414 117.897226 
z
" style="fill: #ffffff"/>
   </g>
   <g id="FillBetweenPolyCollection_10">
    <defs>
     <path id="m5d6fc8d09f" d="M 631.090414 -280.37824 
L 631.090414 -320.645607 
L 637.510584 -333.432865 
L 643.930753 -333.432865 
L 650.350922 -333.206537 
L 656.771091 -333.206537 
L 663.191261 -333.206537 
L 669.61143 -333.206537 
L 676.031599 -333.206537 
L 682.451769 -286.584015 
L 688.871938 -334.224991 
L 695.292107 -307.349144 
L 701.712276 -334.507891 
L 708.132446 -334.507891 
L 714.552615 -334.507891 
L 720.972784 -338.298811 
L 727.392953 -317.873163 
L 727.392953 -280.37824 
L 727.392953 -280.37824 
L 720.972784 -280.37824 
L 714.552615 -280.37824 
L 708.132446 -280.37824 
L 701.712276 -280.37824 
L 695.292107 -280.37824 
L 688.871938 -280.37824 
L 682.451769 -280.37824 
L 676.031599 -280.37824 
L 669.61143 -280.37824 
L 663.191261 -280.37824 
L 656.771091 -280.37824 
L 650.350922 -280.37824 
L 643.930753 -280.37824 
L 637.510584 -280.37824 
L 631.090414 -280.37824 
z
"/>
    </defs>
    <g clip-path="url(#p38200102c8)">
     <use xlink:href="#m5d6fc8d09f" x="0" y="462.401813" style="fill: #8172b3; fill-opacity: 0.22"/>
    </g>
   </g>
   <g id="matplotlib.axis_19"/>
   <g id="matplotlib.axis_20"/>
   <g id="line2d_10">
    <path d="M 631.090414 141.756206 
L 637.510584 128.968947 
L 643.930753 128.968947 
L 650.350922 129.195276 
L 656.771091 129.195276 
L 663.191261 129.195276 
L 669.61143 129.195276 
L 676.031599 129.195276 
L 682.451769 175.817797 
L 688.871938 128.176821 
L 695.292107 155.052668 
L 701.712276 127.893922 
L 708.132446 127.893922 
L 714.552615 127.893922 
L 720.972784 124.103001 
L 727.392953 144.52865 
" clip-path="url(#p38200102c8)" style="fill: none; stroke: #2b3038; stroke-width: 2.2; stroke-linecap: round"/>
   </g>
   <g id="patch_50">
    <path d="M 631.090414 182.023573 
L 631.090414 117.897226 
" style="fill: none; stroke: #cfd4dc; stroke-width: 0.8; stroke-linejoin: miter; stroke-linecap: square"/>
   </g>
   <g id="patch_51">
    <path d="M 727.392953 182.023573 
L 727.392953 117.897226 
" style="fill: none; stroke: #cfd4dc; stroke-width: 0.8; stroke-linejoin: miter; stroke-linecap: square"/>
   </g>
   <g id="patch_52">
    <path d="M 631.090414 182.023573 
L 727.392953 182.023573 
" style="fill: none; stroke: #cfd4dc; stroke-width: 0.8; stroke-linejoin: miter; stroke-linecap: square"/>
   </g>
   <g id="patch_53">
    <path d="M 631.090414 117.897226 
L 727.392953 117.897226 
" style="fill: none; stroke: #cfd4dc; stroke-width: 0.8; stroke-linejoin: miter; stroke-linecap: square"/>
   </g>
   <g id="text_15">
    <text style="font-weight: 700; font-size: 13px; font-family: 'Arial', 'Helvetica', 'DejaVu Sans', sans-serif; text-anchor: middle; fill: #8172b3" x="679.241684" y="111.897226" transform="rotate(-0 679.241684 111.897226)">Retail/Web</text>
   </g>
  </g>
  <g id="axes_13">
   <g id="patch_54">
    <path d="M 132.877253 273.082986 
L 253.255427 273.082986 
L 253.255427 208.956639 
L 132.877253 208.956639 
z
" style="fill: #f6f5f2"/>
   </g>
   <g id="FillBetweenPolyCollection_11">
    <defs>
     <path id="m5369dd8e11" d="M 132.877253 -189.318826 
L 132.877253 -195.524602 
L 140.902465 -201.730375 
L 148.927677 -202.506097 
L 156.952888 -206.384707 
L 164.9781 -208.194724 
L 173.003311 -215.176223 
L 181.028523 -217.50339 
L 189.053735 -216.986241 
L 197.078946 -221.899147 
L 205.104158 -227.587774 
L 213.129369 -228.62207 
L 221.154581 -231.724958 
L 229.179793 -241.033621 
L 237.205004 -239.482179 
L 245.230216 -243.102215 
L 253.255427 -247.239398 
L 253.255427 -189.318826 
L 253.255427 -189.318826 
L 245.230216 -189.318826 
L 237.205004 -189.318826 
L 229.179793 -189.318826 
L 221.154581 -189.318826 
L 213.129369 -189.318826 
L 205.104158 -189.318826 
L 197.078946 -189.318826 
L 189.053735 -189.318826 
L 181.028523 -189.318826 
L 173.003311 -189.318826 
L 164.9781 -189.318826 
L 156.952888 -189.318826 
L 148.927677 -189.318826 
L 140.902465 -189.318826 
L 132.877253 -189.318826 
z
"/>
    </defs>
    <g clip-path="url(#pe94bacded8)">
     <use xlink:href="#m5369dd8e11" x="0" y="462.401813" style="fill: #b5403f; fill-opacity: 0.14"/>
    </g>
   </g>
   <g id="matplotlib.axis_21"/>
   <g id="matplotlib.axis_22"/>
   <g id="line2d_11">
    <path d="M 132.877253 266.877211 
L 140.902465 260.671438 
L 148.927677 259.895716 
L 156.952888 256.017106 
L 164.9781 254.207088 
L 173.003311 247.225589 
L 181.028523 244.898422 
L 189.053735 245.415571 
L 197.078946 240.502665 
L 205.104158 234.814038 
L 213.129369 233.779743 
L 221.154581 230.676854 
L 229.179793 221.368191 
L 237.205004 222.919633 
L 245.230216 219.299598 
L 253.255427 215.162414 
" clip-path="url(#pe94bacded8)" style="fill: none; stroke: #b5403f; stroke-width: 2.6; stroke-linecap: round"/>
   </g>
   <g id="patch_55">
    <path d="M 132.877253 273.082986 
L 132.877253 208.956639 
" style="fill: none; stroke: #d9c2bf; stroke-width: 0.9; stroke-linejoin: miter; stroke-linecap: square"/>
   </g>
   <g id="patch_56">
    <path d="M 253.255427 273.082986 
L 253.255427 208.956639 
" style="fill: none; stroke: #d9c2bf; stroke-width: 0.9; stroke-linejoin: miter; stroke-linecap: square"/>
   </g>
   <g id="patch_57">
    <path d="M 132.877253 273.082986 
L 253.255427 273.082986 
" style="fill: none; stroke: #d9c2bf; stroke-width: 0.9; stroke-linejoin: miter; stroke-linecap: square"/>
   </g>
   <g id="patch_58">
    <path d="M 132.877253 208.956639 
L 253.255427 208.956639 
" style="fill: none; stroke: #d9c2bf; stroke-width: 0.9; stroke-linejoin: miter; stroke-linecap: square"/>
   </g>
   <g id="text_16">
    <text style="font-weight: 700; font-size: 15px; font-family: 'Arial', 'Helvetica', 'DejaVu Sans', sans-serif; text-anchor: end; fill: #1f2933" x="124.450781" y="234.898659" transform="rotate(-0 124.450781 234.898659)">Steep rise</text>
   </g>
   <g id="text_17">
    <text style="font-size: 9px; font-family: 'Arial', 'Helvetica', 'DejaVu Sans', sans-serif; text-anchor: end; fill: #b0b5bd" x="124.450781" y="249.915885" transform="rotate(-0 124.450781 249.915885)">Unseen dataset</text>
   </g>
   <g id="text_18">
    <text style="font-weight: 500; font-size: 12px; font-family: 'Arial', 'Helvetica', 'DejaVu Sans', sans-serif; text-anchor: end; fill: #6b7280" x="124.450781" y="263.568967" transform="rotate(-0 124.450781 263.568967)">CA</text>
   </g>
  </g>
  <g id="axes_14">
   <g id="patch_59">
    <path d="M 267.491513 241.019812 
Q 279.821711 241.019812 289.91584 241.019812 
" style="fill: none; stroke: #5b6470; stroke-width: 2; stroke-linecap: round"/>
    <path d="M 285.91584 239.019812 
L 289.91584 241.019812 
L 285.91584 243.019812 
z
" style="fill: #5b6470; stroke: #5b6470; stroke-width: 2; stroke-linecap: round"/>
   </g>
  </g>
  <g id="axes_15">
   <g id="patch_60">
    <path d="M 307.316463 273.082986 
L 403.619002 273.082986 
L 403.619002 208.956639 
L 307.316463 208.956639 
z
" style="fill: #ffffff"/>
   </g>
   <g id="FillBetweenPolyCollection_12">
    <defs>
     <path id="mf24fed18da" d="M 307.316463 -189.318826 
L 307.316463 -195.524602 
L 313.736632 -199.913682 
L 320.156801 -205.638567 
L 326.576971 -209.836815 
L 332.99714 -214.416724 
L 339.417309 -217.851654 
L 345.837478 -220.332438 
L 352.257648 -223.767369 
L 358.677817 -226.820642 
L 365.097986 -228.538106 
L 371.518155 -231.782207 
L 377.938325 -235.789629 
L 384.358494 -238.079581 
L 390.778663 -239.797047 
L 397.198833 -243.231979 
L 403.619002 -247.239398 
L 403.619002 -189.318826 
L 403.619002 -189.318826 
L 397.198833 -189.318826 
L 390.778663 -189.318826 
L 384.358494 -189.318826 
L 377.938325 -189.318826 
L 371.518155 -189.318826 
L 365.097986 -189.318826 
L 358.677817 -189.318826 
L 352.257648 -189.318826 
L 345.837478 -189.318826 
L 339.417309 -189.318826 
L 332.99714 -189.318826 
L 326.576971 -189.318826 
L 320.156801 -189.318826 
L 313.736632 -189.318826 
L 307.316463 -189.318826 
z
"/>
    </defs>
    <g clip-path="url(#p2bb1db73d7)">
     <use xlink:href="#mf24fed18da" x="0" y="462.401813" style="fill: #ccb974; fill-opacity: 0.22"/>
    </g>
   </g>
   <g id="matplotlib.axis_23"/>
   <g id="matplotlib.axis_24"/>
   <g id="line2d_12">
    <path d="M 307.316463 266.877211 
L 313.736632 262.488131 
L 320.156801 256.763246 
L 326.576971 252.564997 
L 332.99714 247.985089 
L 339.417309 244.550158 
L 345.837478 242.069374 
L 352.257648 238.634444 
L 358.677817 235.58117 
L 365.097986 233.863706 
L 371.518155 230.619606 
L 377.938325 226.612184 
L 384.358494 224.322232 
L 390.778663 222.604765 
L 397.198833 219.169834 
L 403.619002 215.162414 
" clip-path="url(#p2bb1db73d7)" style="fill: none; stroke: #2b3038; stroke-width: 2.2; stroke-linecap: round"/>
   </g>
   <g id="patch_61">
    <path d="M 307.316463 273.082986 
L 307.316463 208.956639 
" style="fill: none; stroke: #cfd4dc; stroke-width: 0.8; stroke-linejoin: miter; stroke-linecap: square"/>
   </g>
   <g id="patch_62">
    <path d="M 403.619002 273.082986 
L 403.619002 208.956639 
" style="fill: none; stroke: #cfd4dc; stroke-width: 0.8; stroke-linejoin: miter; stroke-linecap: square"/>
   </g>
   <g id="patch_63">
    <path d="M 307.316463 273.082986 
L 403.619002 273.082986 
" style="fill: none; stroke: #cfd4dc; stroke-width: 0.8; stroke-linejoin: miter; stroke-linecap: square"/>
   </g>
   <g id="patch_64">
    <path d="M 307.316463 208.956639 
L 403.619002 208.956639 
" style="fill: none; stroke: #cfd4dc; stroke-width: 0.8; stroke-linejoin: miter; stroke-linecap: square"/>
   </g>
   <g id="text_19">
    <text style="font-weight: 700; font-size: 13px; font-family: 'Arial', 'Helvetica', 'DejaVu Sans', sans-serif; text-anchor: middle; fill: #ccb974" x="355.467732" y="202.956639" transform="rotate(-0 355.467732 202.956639)">Health</text>
   </g>
  </g>
  <g id="axes_16">
   <g id="patch_65">
    <path d="M 415.241113 273.082986 
L 511.543652 273.082986 
L 511.543652 208.956639 
L 415.241113 208.956639 
z
" style="fill: #ffffff"/>
   </g>
   <g id="FillBetweenPolyCollection_13">
    <defs>
     <path id="m11011de724" d="M 415.241113 -189.318826 
L 415.241113 -195.524602 
L 421.661283 -198.880212 
L 428.081452 -201.924005 
L 434.501621 -204.017521 
L 440.92179 -205.576535 
L 447.34196 -207.49192 
L 453.762129 -211.367165 
L 460.182298 -215.286998 
L 466.602467 -219.800706 
L 473.022637 -225.027116 
L 479.442806 -232.198596 
L 485.862975 -235.9254 
L 492.283145 -238.553455 
L 498.703314 -242.102055 
L 505.123483 -244.195605 
L 511.543652 -247.239398 
L 511.543652 -189.318826 
L 511.543652 -189.318826 
L 505.123483 -189.318826 
L 498.703314 -189.318826 
L 492.283145 -189.318826 
L 485.862975 -189.318826 
L 479.442806 -189.318826 
L 473.022637 -189.318826 
L 466.602467 -189.318826 
L 460.182298 -189.318826 
L 453.762129 -189.318826 
L 447.34196 -189.318826 
L 440.92179 -189.318826 
L 434.501621 -189.318826 
L 428.081452 -189.318826 
L 421.661283 -189.318826 
L 415.241113 -189.318826 
z
"/>
    </defs>
    <g clip-path="url(#p9020319f4a)">
     <use xlink:href="#m11011de724" x="0" y="462.401813" style="fill: #c44e52; fill-opacity: 0.22"/>
    </g>
   </g>
   <g id="matplotlib.axis_25"/>
   <g id="matplotlib.axis_26"/>
   <g id="line2d_13">
    <path d="M 415.241113 266.877211 
L 421.661283 263.5216 
L 428.081452 260.477807 
L 434.501621 258.384291 
L 440.92179 256.825277 
L 447.34196 254.909893 
L 453.762129 251.034648 
L 460.182298 247.114814 
L 466.602467 242.601107 
L 473.022637 237.374696 
L 479.442806 230.203216 
L 485.862975 226.476413 
L 492.283145 223.848358 
L 498.703314 220.299758 
L 505.123483 218.206207 
L 511.543652 215.162414 
" clip-path="url(#p9020319f4a)" style="fill: none; stroke: #2b3038; stroke-width: 2.2; stroke-linecap: round"/>
   </g>
   <g id="patch_66">
    <path d="M 415.241113 273.082986 
L 415.241113 208.956639 
" style="fill: none; stroke: #cfd4dc; stroke-width: 0.8; stroke-linejoin: miter; stroke-linecap: square"/>
   </g>
   <g id="patch_67">
    <path d="M 511.543652 273.082986 
L 511.543652 208.956639 
" style="fill: none; stroke: #cfd4dc; stroke-width: 0.8; stroke-linejoin: miter; stroke-linecap: square"/>
   </g>
   <g id="patch_68">
    <path d="M 415.241113 273.082986 
L 511.543652 273.082986 
" style="fill: none; stroke: #cfd4dc; stroke-width: 0.8; stroke-linejoin: miter; stroke-linecap: square"/>
   </g>
   <g id="patch_69">
    <path d="M 415.241113 208.956639 
L 511.543652 208.956639 
" style="fill: none; stroke: #cfd4dc; stroke-width: 0.8; stroke-linejoin: miter; stroke-linecap: square"/>
   </g>
   <g id="text_20">
    <text style="font-weight: 700; font-size: 13px; font-family: 'Arial', 'Helvetica', 'DejaVu Sans', sans-serif; text-anchor: middle; fill: #c44e52" x="463.392383" y="202.956639" transform="rotate(-0 463.392383 202.956639)">Finance</text>
   </g>
  </g>
  <g id="axes_17">
   <g id="patch_70">
    <path d="M 523.165764 273.082986 
L 619.468303 273.082986 
L 619.468303 208.956639 
L 523.165764 208.956639 
z
" style="fill: #ffffff"/>
   </g>
   <g id="FillBetweenPolyCollection_14">
    <defs>
     <path id="m328ff72e54" d="M 523.165764 -189.318826 
L 523.165764 -195.524602 
L 529.585933 -208.370441 
L 536.006102 -212.514231 
L 542.426272 -205.304004 
L 548.846441 -203.72935 
L 555.26661 -222.127892 
L 561.686779 -217.238192 
L 568.106949 -227.680595 
L 574.527118 -213.674494 
L 580.947287 -220.967629 
L 587.367457 -247.239398 
L 593.787626 -235.305213 
L 600.207795 -236.631254 
L 606.627964 -226.354592 
L 613.048134 -226.686073 
L 619.468303 -236.465475 
L 619.468303 -189.318826 
L 619.468303 -189.318826 
L 613.048134 -189.318826 
L 606.627964 -189.318826 
L 600.207795 -189.318826 
L 593.787626 -189.318826 
L 587.367457 -189.318826 
L 580.947287 -189.318826 
L 574.527118 -189.318826 
L 568.106949 -189.318826 
L 561.686779 -189.318826 
L 555.26661 -189.318826 
L 548.846441 -189.318826 
L 542.426272 -189.318826 
L 536.006102 -189.318826 
L 529.585933 -189.318826 
L 523.165764 -189.318826 
z
"/>
    </defs>
    <g clip-path="url(#p7e99fa007d)">
     <use xlink:href="#m328ff72e54" x="0" y="462.401813" style="fill: #55a868; fill-opacity: 0.22"/>
    </g>
   </g>
   <g id="matplotlib.axis_27"/>
   <g id="matplotlib.axis_28"/>
   <g id="line2d_14">
    <path d="M 523.165764 266.877211 
L 529.585933 254.031371 
L 536.006102 249.887582 
L 542.426272 257.097808 
L 548.846441 258.672462 
L 555.26661 240.273921 
L 561.686779 245.163621 
L 568.106949 234.721217 
L 574.527118 248.727319 
L 580.947287 241.434183 
L 587.367457 215.162414 
L 593.787626 227.096599 
L 600.207795 225.770558 
L 606.627964 236.047221 
L 613.048134 235.71574 
L 619.468303 225.936338 
" clip-path="url(#p7e99fa007d)" style="fill: none; stroke: #2b3038; stroke-width: 2.2; stroke-linecap: round"/>
   </g>
   <g id="patch_71">
    <path d="M 523.165764 273.082986 
L 523.165764 208.956639 
" style="fill: none; stroke: #cfd4dc; stroke-width: 0.8; stroke-linejoin: miter; stroke-linecap: square"/>
   </g>
   <g id="patch_72">
    <path d="M 619.468303 273.082986 
L 619.468303 208.956639 
" style="fill: none; stroke: #cfd4dc; stroke-width: 0.8; stroke-linejoin: miter; stroke-linecap: square"/>
   </g>
   <g id="patch_73">
    <path d="M 523.165764 273.082986 
L 619.468303 273.082986 
" style="fill: none; stroke: #cfd4dc; stroke-width: 0.8; stroke-linejoin: miter; stroke-linecap: square"/>
   </g>
   <g id="patch_74">
    <path d="M 523.165764 208.956639 
L 619.468303 208.956639 
" style="fill: none; stroke: #cfd4dc; stroke-width: 0.8; stroke-linejoin: miter; stroke-linecap: square"/>
   </g>
   <g id="text_21">
    <text style="font-weight: 700; font-size: 13px; font-family: 'Arial', 'Helvetica', 'DejaVu Sans', sans-serif; text-anchor: middle; fill: #55a868" x="571.317033" y="202.956639" transform="rotate(-0 571.317033 202.956639)">Environment</text>
   </g>
  </g>
  <g id="axes_18">
   <g id="patch_75">
    <path d="M 631.090414 273.082986 
L 727.392953 273.082986 
L 727.392953 208.956639 
L 631.090414 208.956639 
z
" style="fill: #ffffff"/>
   </g>
   <g id="FillBetweenPolyCollection_15">
    <defs>
     <path id="mce020a4c7e" d="M 631.090414 -189.318826 
L 631.090414 -202.16618 
L 637.510584 -198.330974 
L 643.930753 -196.570132 
L 650.350922 -195.524602 
L 656.771091 -196.363496 
L 663.191261 -198.603738 
L 669.61143 -204.068934 
L 676.031599 -211.457945 
L 682.451769 -224.444251 
L 688.871938 -235.041109 
L 695.292107 -239.638807 
L 701.712276 -244.358129 
L 708.132446 -246.687639 
L 714.552615 -246.263722 
L 720.972784 -247.239398 
L 727.392953 -247.104413 
L 727.392953 -189.318826 
L 727.392953 -189.318826 
L 720.972784 -189.318826 
L 714.552615 -189.318826 
L 708.132446 -189.318826 
L 701.712276 -189.318826 
L 695.292107 -189.318826 
L 688.871938 -189.318826 
L 682.451769 -189.318826 
L 676.031599 -189.318826 
L 669.61143 -189.318826 
L 663.191261 -189.318826 
L 656.771091 -189.318826 
L 650.350922 -189.318826 
L 643.930753 -189.318826 
L 637.510584 -189.318826 
L 631.090414 -189.318826 
z
"/>
    </defs>
    <g clip-path="url(#p8cd34d9965)">
     <use xlink:href="#mce020a4c7e" x="0" y="462.401813" style="fill: #dd8452; fill-opacity: 0.22"/>
    </g>
   </g>
   <g id="matplotlib.axis_29"/>
   <g id="matplotlib.axis_30"/>
   <g id="line2d_15">
    <path d="M 631.090414 260.235632 
L 637.510584 264.070838 
L 643.930753 265.831681 
L 650.350922 266.877211 
L 656.771091 266.038316 
L 663.191261 263.798074 
L 669.61143 258.332879 
L 676.031599 250.943867 
L 682.451769 237.957562 
L 688.871938 227.360703 
L 695.292107 222.763006 
L 701.712276 218.043684 
L 708.132446 215.714173 
L 714.552615 216.13809 
L 720.972784 215.162414 
L 727.392953 215.2974 
" clip-path="url(#p8cd34d9965)" style="fill: none; stroke: #2b3038; stroke-width: 2.2; stroke-linecap: round"/>
   </g>
   <g id="patch_76">
    <path d="M 631.090414 273.082986 
L 631.090414 208.956639 
" style="fill: none; stroke: #cfd4dc; stroke-width: 0.8; stroke-linejoin: miter; stroke-linecap: square"/>
   </g>
   <g id="patch_77">
    <path d="M 727.392953 273.082986 
L 727.392953 208.956639 
" style="fill: none; stroke: #cfd4dc; stroke-width: 0.8; stroke-linejoin: miter; stroke-linecap: square"/>
   </g>
   <g id="patch_78">
    <path d="M 631.090414 273.082986 
L 727.392953 273.082986 
" style="fill: none; stroke: #cfd4dc; stroke-width: 0.8; stroke-linejoin: miter; stroke-linecap: square"/>
   </g>
   <g id="patch_79">
    <path d="M 631.090414 208.956639 
L 727.392953 208.956639 
" style="fill: none; stroke: #cfd4dc; stroke-width: 0.8; stroke-linejoin: miter; stroke-linecap: square"/>
   </g>
   <g id="text_22">
    <text style="font-weight: 700; font-size: 13px; font-family: 'Arial', 'Helvetica', 'DejaVu Sans', sans-serif; text-anchor: middle; fill: #dd8452" x="679.241684" y="202.956639" transform="rotate(-0 679.241684 202.956639)">Energy</text>
   </g>
  </g>
  <g id="axes_19">
   <g id="patch_80">
    <path d="M 132.877253 364.142399 
L 253.255427 364.142399 
L 253.255427 300.016052 
L 132.877253 300.016052 
z
" style="fill: #f6f5f2"/>
   </g>
   <g id="FillBetweenPolyCollection_16">
    <defs>
     <path id="m82380981a2" d="M 132.877253 -98.259413 
L 132.877253 -156.179985 
L 140.902465 -151.479653 
L 148.927677 -153.05014 
L 156.952888 -149.129486 
L 164.9781 -144.429155 
L 173.003311 -136.587842 
L 181.028523 -122.486844 
L 189.053735 -114.656667 
L 197.078946 -109.956333 
L 205.104158 -108.385845 
L 213.129369 -106.03568 
L 221.154581 -106.03568 
L 229.179793 -104.465189 
L 237.205004 -110.73601 
L 245.230216 -117.006835 
L 253.255427 -122.486844 
L 253.255427 -98.259413 
L 253.255427 -98.259413 
L 245.230216 -98.259413 
L 237.205004 -98.259413 
L 229.179793 -98.259413 
L 221.154581 -98.259413 
L 213.129369 -98.259413 
L 205.104158 -98.259413 
L 197.078946 -98.259413 
L 189.053735 -98.259413 
L 181.028523 -98.259413 
L 173.003311 -98.259413 
L 164.9781 -98.259413 
L 156.952888 -98.259413 
L 148.927677 -98.259413 
L 140.902465 -98.259413 
L 132.877253 -98.259413 
z
"/>
    </defs>
    <g clip-path="url(#p7b0e1974cc)">
     <use xlink:href="#m82380981a2" x="0" y="462.401813" style="fill: #b5403f; fill-opacity: 0.14"/>
    </g>
   </g>
   <g id="matplotlib.axis_31"/>
   <g id="matplotlib.axis_32"/>
   <g id="line2d_16">
    <path d="M 132.877253 306.221828 
L 140.902465 310.92216 
L 148.927677 309.351672 
L 156.952888 313.272327 
L 164.9781 317.972657 
L 173.003311 325.81397 
L 181.028523 339.914969 
L 189.053735 347.745145 
L 197.078946 352.445479 
L 205.104158 354.015967 
L 213.129369 356.366132 
L 221.154581 356.366132 
L 229.179793 357.936624 
L 237.205004 351.665803 
L 245.230216 345.394978 
L 253.255427 339.914969 
" clip-path="url(#p7b0e1974cc)" style="fill: none; stroke: #b5403f; stroke-width: 2.6; stroke-linecap: round"/>
   </g>
   <g id="patch_81">
    <path d="M 132.877253 364.142399 
L 132.877253 300.016052 
" style="fill: none; stroke: #d9c2bf; stroke-width: 0.9; stroke-linejoin: miter; stroke-linecap: square"/>
   </g>
   <g id="patch_82">
    <path d="M 253.255427 364.142399 
L 253.255427 300.016052 
" style="fill: none; stroke: #d9c2bf; stroke-width: 0.9; stroke-linejoin: miter; stroke-linecap: square"/>
   </g>
   <g id="patch_83">
    <path d="M 132.877253 364.142399 
L 253.255427 364.142399 
" style="fill: none; stroke: #d9c2bf; stroke-width: 0.9; stroke-linejoin: miter; stroke-linecap: square"/>
   </g>
   <g id="patch_84">
    <path d="M 132.877253 300.016052 
L 253.255427 300.016052 
" style="fill: none; stroke: #d9c2bf; stroke-width: 0.9; stroke-linejoin: miter; stroke-linecap: square"/>
   </g>
   <g id="text_23">
    <text style="font-weight: 700; font-size: 15px; font-family: 'Arial', 'Helvetica', 'DejaVu Sans', sans-serif; text-anchor: end; fill: #1f2933" x="124.450781" y="325.958073" transform="rotate(-0 124.450781 325.958073)">Gradual fall</text>
   </g>
   <g id="text_24">
    <text style="font-size: 9px; font-family: 'Arial', 'Helvetica', 'DejaVu Sans', sans-serif; text-anchor: end; fill: #b0b5bd" x="124.450781" y="340.975298" transform="rotate(-0 124.450781 340.975298)">Unseen dataset</text>
   </g>
   <g id="text_25">
    <text style="font-weight: 500; font-size: 12px; font-family: 'Arial', 'Helvetica', 'DejaVu Sans', sans-serif; text-anchor: end; fill: #6b7280" x="124.450781" y="354.62838" transform="rotate(-0 124.450781 354.62838)">ETTh1</text>
   </g>
  </g>
  <g id="axes_20">
   <g id="patch_85">
    <path d="M 267.491513 332.079226 
Q 279.821711 332.079226 289.91584 332.079226 
" style="fill: none; stroke: #5b6470; stroke-width: 2; stroke-linecap: round"/>
    <path d="M 285.91584 330.079226 
L 289.91584 332.079226 
L 285.91584 334.079226 
z
" style="fill: #5b6470; stroke: #5b6470; stroke-width: 2; stroke-linecap: round"/>
   </g>
  </g>
  <g id="axes_21">
   <g id="patch_86">
    <path d="M 307.316463 364.142399 
L 403.619002 364.142399 
L 403.619002 300.016052 
L 307.316463 300.016052 
z
" style="fill: #ffffff"/>
   </g>
   <g id="FillBetweenPolyCollection_17">
    <defs>
     <path id="m3890e58e08" d="M 307.316463 -98.259413 
L 307.316463 -142.270488 
L 313.736632 -124.437799 
L 320.156801 -122.65453 
L 326.576971 -119.087993 
L 332.99714 -109.814995 
L 339.417309 -111.954917 
L 345.837478 -106.248456 
L 352.257648 -104.465189 
L 358.677817 -105.535148 
L 365.097986 -107.318417 
L 371.518155 -111.954917 
L 377.938325 -116.94807 
L 384.358494 -125.50776 
L 390.778663 -127.291029 
L 397.198833 -142.270488 
L 403.619002 -156.179985 
L 403.619002 -98.259413 
L 403.619002 -98.259413 
L 397.198833 -98.259413 
L 390.778663 -98.259413 
L 384.358494 -98.259413 
L 377.938325 -98.259413 
L 371.518155 -98.259413 
L 365.097986 -98.259413 
L 358.677817 -98.259413 
L 352.257648 -98.259413 
L 345.837478 -98.259413 
L 339.417309 -98.259413 
L 332.99714 -98.259413 
L 326.576971 -98.259413 
L 320.156801 -98.259413 
L 313.736632 -98.259413 
L 307.316463 -98.259413 
z
"/>
    </defs>
    <g clip-path="url(#p880d51de21)">
     <use xlink:href="#m3890e58e08" x="0" y="462.401813" style="fill: #4c72b0; fill-opacity: 0.22"/>
    </g>
   </g>
   <g id="matplotlib.axis_33"/>
   <g id="matplotlib.axis_34"/>
   <g id="line2d_17">
    <path d="M 307.316463 320.131324 
L 313.736632 337.964014 
L 320.156801 339.747282 
L 326.576971 343.31382 
L 332.99714 352.586817 
L 339.417309 350.446895 
L 345.837478 356.153356 
L 352.257648 357.936624 
L 358.677817 356.866664 
L 365.097986 355.083396 
L 371.518155 350.446895 
L 377.938325 345.453743 
L 384.358494 336.894053 
L 390.778663 335.110784 
L 397.198833 320.131324 
L 403.619002 306.221828 
" clip-path="url(#p880d51de21)" style="fill: none; stroke: #2b3038; stroke-width: 2.2; stroke-linecap: round"/>
   </g>
   <g id="patch_87">
    <path d="M 307.316463 364.142399 
L 307.316463 300.016052 
" style="fill: none; stroke: #cfd4dc; stroke-width: 0.8; stroke-linejoin: miter; stroke-linecap: square"/>
   </g>
   <g id="patch_88">
    <path d="M 403.619002 364.142399 
L 403.619002 300.016052 
" style="fill: none; stroke: #cfd4dc; stroke-width: 0.8; stroke-linejoin: miter; stroke-linecap: square"/>
   </g>
   <g id="patch_89">
    <path d="M 307.316463 364.142399 
L 403.619002 364.142399 
" style="fill: none; stroke: #cfd4dc; stroke-width: 0.8; stroke-linejoin: miter; stroke-linecap: square"/>
   </g>
   <g id="patch_90">
    <path d="M 307.316463 300.016052 
L 403.619002 300.016052 
" style="fill: none; stroke: #cfd4dc; stroke-width: 0.8; stroke-linejoin: miter; stroke-linecap: square"/>
   </g>
   <g id="text_26">
    <text style="font-weight: 700; font-size: 13px; font-family: 'Arial', 'Helvetica', 'DejaVu Sans', sans-serif; text-anchor: middle; fill: #4c72b0" x="355.467732" y="294.016052" transform="rotate(-0 355.467732 294.016052)">Traffic</text>
   </g>
  </g>
  <g id="axes_22">
   <g id="patch_91">
    <path d="M 415.241113 364.142399 
L 511.543652 364.142399 
L 511.543652 300.016052 
L 415.241113 300.016052 
z
" style="fill: #ffffff"/>
   </g>
   <g id="FillBetweenPolyCollection_18">
    <defs>
     <path id="m80c34d6c8d" d="M 415.241113 -98.259413 
L 415.241113 -156.179985 
L 421.661283 -149.680311 
L 428.081452 -152.223663 
L 434.501621 -135.550584 
L 440.92179 -122.551239 
L 447.34196 -108.986699 
L 453.762129 -104.465189 
L 460.182298 -107.291133 
L 466.602467 -112.095242 
L 473.022637 -109.551891 
L 479.442806 -108.138917 
L 485.862975 -108.704105 
L 492.283145 -108.704105 
L 498.703314 -108.704105 
L 505.123483 -108.421512 
L 511.543652 -107.00854 
L 511.543652 -98.259413 
L 511.543652 -98.259413 
L 505.123483 -98.259413 
L 498.703314 -98.259413 
L 492.283145 -98.259413 
L 485.862975 -98.259413 
L 479.442806 -98.259413 
L 473.022637 -98.259413 
L 466.602467 -98.259413 
L 460.182298 -98.259413 
L 453.762129 -98.259413 
L 447.34196 -98.259413 
L 440.92179 -98.259413 
L 434.501621 -98.259413 
L 428.081452 -98.259413 
L 421.661283 -98.259413 
L 415.241113 -98.259413 
z
"/>
    </defs>
    <g clip-path="url(#p158850d8b2)">
     <use xlink:href="#m80c34d6c8d" x="0" y="462.401813" style="fill: #c44e52; fill-opacity: 0.22"/>
    </g>
   </g>
   <g id="matplotlib.axis_35"/>
   <g id="matplotlib.axis_36"/>
   <g id="line2d_18">
    <path d="M 415.241113 306.221828 
L 421.661283 312.721502 
L 428.081452 310.17815 
L 434.501621 326.851228 
L 440.92179 339.850574 
L 447.34196 353.415114 
L 453.762129 357.936624 
L 460.182298 355.110679 
L 466.602467 350.30657 
L 473.022637 352.849922 
L 479.442806 354.262896 
L 485.862975 353.697707 
L 492.283145 353.697707 
L 498.703314 353.697707 
L 505.123483 353.9803 
L 511.543652 355.393273 
" clip-path="url(#p158850d8b2)" style="fill: none; stroke: #2b3038; stroke-width: 2.2; stroke-linecap: round"/>
   </g>
   <g id="patch_92">
    <path d="M 415.241113 364.142399 
L 415.241113 300.016052 
" style="fill: none; stroke: #cfd4dc; stroke-width: 0.8; stroke-linejoin: miter; stroke-linecap: square"/>
   </g>
   <g id="patch_93">
    <path d="M 511.543652 364.142399 
L 511.543652 300.016052 
" style="fill: none; stroke: #cfd4dc; stroke-width: 0.8; stroke-linejoin: miter; stroke-linecap: square"/>
   </g>
   <g id="patch_94">
    <path d="M 415.241113 364.142399 
L 511.543652 364.142399 
" style="fill: none; stroke: #cfd4dc; stroke-width: 0.8; stroke-linejoin: miter; stroke-linecap: square"/>
   </g>
   <g id="patch_95">
    <path d="M 415.241113 300.016052 
L 511.543652 300.016052 
" style="fill: none; stroke: #cfd4dc; stroke-width: 0.8; stroke-linejoin: miter; stroke-linecap: square"/>
   </g>
   <g id="text_27">
    <text style="font-weight: 700; font-size: 13px; font-family: 'Arial', 'Helvetica', 'DejaVu Sans', sans-serif; text-anchor: middle; fill: #c44e52" x="463.392383" y="294.016052" transform="rotate(-0 463.392383 294.016052)">Finance</text>
   </g>
  </g>
  <g id="axes_23">
   <g id="patch_96">
    <path d="M 523.165764 364.142399 
L 619.468303 364.142399 
L 619.468303 300.016052 
L 523.165764 300.016052 
z
" style="fill: #ffffff"/>
   </g>
   <g id="FillBetweenPolyCollection_19">
    <defs>
     <path id="mc292d5d3a0" d="M 523.165764 -98.259413 
L 523.165764 -104.465189 
L 529.585933 -104.465189 
L 536.006102 -104.465189 
L 542.426272 -104.465189 
L 548.846441 -104.465189 
L 555.26661 -104.465189 
L 561.686779 -104.465189 
L 568.106949 -104.465189 
L 574.527118 -104.465189 
L 580.947287 -104.465189 
L 587.367457 -104.465189 
L 593.787626 -104.465189 
L 600.207795 -104.795496 
L 606.627964 -117.100753 
L 613.048134 -138.452809 
L 619.468303 -156.179985 
L 619.468303 -98.259413 
L 619.468303 -98.259413 
L 613.048134 -98.259413 
L 606.627964 -98.259413 
L 600.207795 -98.259413 
L 593.787626 -98.259413 
L 587.367457 -98.259413 
L 580.947287 -98.259413 
L 574.527118 -98.259413 
L 568.106949 -98.259413 
L 561.686779 -98.259413 
L 555.26661 -98.259413 
L 548.846441 -98.259413 
L 542.426272 -98.259413 
L 536.006102 -98.259413 
L 529.585933 -98.259413 
L 523.165764 -98.259413 
z
"/>
    </defs>
    <g clip-path="url(#p4557becd7f)">
     <use xlink:href="#mc292d5d3a0" x="0" y="462.401813" style="fill: #dd8452; fill-opacity: 0.22"/>
    </g>
   </g>
   <g id="matplotlib.axis_37"/>
   <g id="matplotlib.axis_38"/>
   <g id="line2d_19">
    <path d="M 523.165764 357.936624 
L 529.585933 357.936624 
L 536.006102 357.936624 
L 542.426272 357.936624 
L 548.846441 357.936624 
L 555.26661 357.936624 
L 561.686779 357.936624 
L 568.106949 357.936624 
L 574.527118 357.936624 
L 580.947287 357.936624 
L 587.367457 357.936624 
L 593.787626 357.936624 
L 600.207795 357.606317 
L 606.627964 345.30106 
L 613.048134 323.949004 
L 619.468303 306.221828 
" clip-path="url(#p4557becd7f)" style="fill: none; stroke: #2b3038; stroke-width: 2.2; stroke-linecap: round"/>
   </g>
   <g id="patch_97">
    <path d="M 523.165764 364.142399 
L 523.165764 300.016052 
" style="fill: none; stroke: #cfd4dc; stroke-width: 0.8; stroke-linejoin: miter; stroke-linecap: square"/>
   </g>
   <g id="patch_98">
    <path d="M 619.468303 364.142399 
L 619.468303 300.016052 
" style="fill: none; stroke: #cfd4dc; stroke-width: 0.8; stroke-linejoin: miter; stroke-linecap: square"/>
   </g>
   <g id="patch_99">
    <path d="M 523.165764 364.142399 
L 619.468303 364.142399 
" style="fill: none; stroke: #cfd4dc; stroke-width: 0.8; stroke-linejoin: miter; stroke-linecap: square"/>
   </g>
   <g id="patch_100">
    <path d="M 523.165764 300.016052 
L 619.468303 300.016052 
" style="fill: none; stroke: #cfd4dc; stroke-width: 0.8; stroke-linejoin: miter; stroke-linecap: square"/>
   </g>
   <g id="text_28">
    <text style="font-weight: 700; font-size: 13px; font-family: 'Arial', 'Helvetica', 'DejaVu Sans', sans-serif; text-anchor: middle; fill: #dd8452" x="571.317033" y="294.016052" transform="rotate(-0 571.317033 294.016052)">Energy</text>
   </g>
  </g>
  <g id="axes_24">
   <g id="patch_101">
    <path d="M 631.090414 364.142399 
L 727.392953 364.142399 
L 727.392953 300.016052 
L 631.090414 300.016052 
z
" style="fill: #ffffff"/>
   </g>
   <g id="FillBetweenPolyCollection_20">
    <defs>
     <path id="m25b14a0535" d="M 631.090414 -98.259413 
L 631.090414 -156.179985 
L 637.510584 -141.135682 
L 643.930753 -134.553797 
L 650.350922 -128.912183 
L 656.771091 -115.748417 
L 663.191261 -111.987341 
L 669.61143 -109.166534 
L 676.031599 -151.478639 
L 682.451769 -119.509493 
L 688.871938 -119.509493 
L 695.292107 -111.047072 
L 701.712276 -104.465189 
L 708.132446 -116.688686 
L 714.552615 -104.465189 
L 720.972784 -106.345727 
L 727.392953 -113.867879 
L 727.392953 -98.259413 
L 727.392953 -98.259413 
L 720.972784 -98.259413 
L 714.552615 -98.259413 
L 708.132446 -98.259413 
L 701.712276 -98.259413 
L 695.292107 -98.259413 
L 688.871938 -98.259413 
L 682.451769 -98.259413 
L 676.031599 -98.259413 
L 669.61143 -98.259413 
L 663.191261 -98.259413 
L 656.771091 -98.259413 
L 650.350922 -98.259413 
L 643.930753 -98.259413 
L 637.510584 -98.259413 
L 631.090414 -98.259413 
z
"/>
    </defs>
    <g clip-path="url(#pe9a6bbad51)">
     <use xlink:href="#m25b14a0535" x="0" y="462.401813" style="fill: #8172b3; fill-opacity: 0.22"/>
    </g>
   </g>
   <g id="matplotlib.axis_39"/>
   <g id="matplotlib.axis_40"/>
   <g id="line2d_20">
    <path d="M 631.090414 306.221828 
L 637.510584 321.26613 
L 643.930753 327.848015 
L 650.350922 333.489629 
L 656.771091 346.653395 
L 663.191261 350.414471 
L 669.61143 353.235279 
L 676.031599 310.923173 
L 682.451769 342.892319 
L 688.871938 342.892319 
L 695.292107 351.354741 
L 701.712276 357.936624 
L 708.132446 345.713126 
L 714.552615 357.936624 
L 720.972784 356.056085 
L 727.392953 348.533934 
" clip-path="url(#pe9a6bbad51)" style="fill: none; stroke: #2b3038; stroke-width: 2.2; stroke-linecap: round"/>
   </g>
   <g id="patch_102">
    <path d="M 631.090414 364.142399 
L 631.090414 300.016052 
" style="fill: none; stroke: #cfd4dc; stroke-width: 0.8; stroke-linejoin: miter; stroke-linecap: square"/>
   </g>
   <g id="patch_103">
    <path d="M 727.392953 364.142399 
L 727.392953 300.016052 
" style="fill: none; stroke: #cfd4dc; stroke-width: 0.8; stroke-linejoin: miter; stroke-linecap: square"/>
   </g>
   <g id="patch_104">
    <path d="M 631.090414 364.142399 
L 727.392953 364.142399 
" style="fill: none; stroke: #cfd4dc; stroke-width: 0.8; stroke-linejoin: miter; stroke-linecap: square"/>
   </g>
   <g id="patch_105">
    <path d="M 631.090414 300.016052 
L 727.392953 300.016052 
" style="fill: none; stroke: #cfd4dc; stroke-width: 0.8; stroke-linejoin: miter; stroke-linecap: square"/>
   </g>
   <g id="text_29">
    <text style="font-weight: 700; font-size: 13px; font-family: 'Arial', 'Helvetica', 'DejaVu Sans', sans-serif; text-anchor: middle; fill: #8172b3" x="679.241684" y="294.016052" transform="rotate(-0 679.241684 294.016052)">Retail/Web</text>
   </g>
  </g>
  <g id="axes_25">
   <g id="patch_106">
    <path d="M 132.877253 455.201813 
L 253.255427 455.201813 
L 253.255427 391.075465 
L 132.877253 391.075465 
z
" style="fill: #f6f5f2"/>
   </g>
   <g id="FillBetweenPolyCollection_21">
    <defs>
     <path id="m552f966d51" d="M 132.877253 -7.2 
L 132.877253 -14.279549 
L 140.902465 -13.405776 
L 148.927677 -31.373049 
L 156.952888 -37.510391 
L 164.9781 -37.510391 
L 173.003311 -41.455458 
L 181.028523 -48.027051 
L 189.053735 -54.603913 
L 197.078946 -58.54896 
L 205.104158 -60.301734 
L 213.129369 -49.345573 
L 221.154581 -65.120572 
L 229.179793 -63.3678 
L 237.205004 -60.301734 
L 245.230216 -55.917185 
L 253.255427 -42.32923 
L 253.255427 -7.2 
L 253.255427 -7.2 
L 245.230216 -7.2 
L 237.205004 -7.2 
L 229.179793 -7.2 
L 221.154581 -7.2 
L 213.129369 -7.2 
L 205.104158 -7.2 
L 197.078946 -7.2 
L 189.053735 -7.2 
L 181.028523 -7.2 
L 173.003311 -7.2 
L 164.9781 -7.2 
L 156.952888 -7.2 
L 148.927677 -7.2 
L 140.902465 -7.2 
L 132.877253 -7.2 
z
"/>
    </defs>
    <g clip-path="url(#p2843011687)">
     <use xlink:href="#m552f966d51" x="0" y="462.401813" style="fill: #b5403f; fill-opacity: 0.14"/>
    </g>
   </g>
   <g id="matplotlib.axis_41"/>
   <g id="matplotlib.axis_42"/>
   <g id="line2d_21">
    <path d="M 132.877253 448.122264 
L 140.902465 448.996037 
L 148.927677 431.028763 
L 156.952888 424.891422 
L 164.9781 424.891422 
L 173.003311 420.946354 
L 181.028523 414.374762 
L 189.053735 407.7979 
L 197.078946 403.852853 
L 205.104158 402.100078 
L 213.129369 413.05624 
L 221.154581 397.281241 
L 229.179793 399.034012 
L 237.205004 402.100078 
L 245.230216 406.484627 
L 253.255427 420.072582 
" clip-path="url(#p2843011687)" style="fill: none; stroke: #b5403f; stroke-width: 2.6; stroke-linecap: round"/>
   </g>
   <g id="patch_107">
    <path d="M 132.877253 455.201812 
L 132.877253 391.075465 
" style="fill: none; stroke: #d9c2bf; stroke-width: 0.9; stroke-linejoin: miter; stroke-linecap: square"/>
   </g>
   <g id="patch_108">
    <path d="M 253.255427 455.201812 
L 253.255427 391.075465 
" style="fill: none; stroke: #d9c2bf; stroke-width: 0.9; stroke-linejoin: miter; stroke-linecap: square"/>
   </g>
   <g id="patch_109">
    <path d="M 132.877253 455.201813 
L 253.255427 455.201813 
" style="fill: none; stroke: #d9c2bf; stroke-width: 0.9; stroke-linejoin: miter; stroke-linecap: square"/>
   </g>
   <g id="patch_110">
    <path d="M 132.877253 391.075465 
L 253.255427 391.075465 
" style="fill: none; stroke: #d9c2bf; stroke-width: 0.9; stroke-linejoin: miter; stroke-linecap: square"/>
   </g>
   <g id="text_30">
    <text style="font-weight: 700; font-size: 15px; font-family: 'Arial', 'Helvetica', 'DejaVu Sans', sans-serif; text-anchor: end; fill: #1f2933" x="124.450781" y="417.017486" transform="rotate(-0 124.450781 417.017486)">Rise, then dip</text>
   </g>
   <g id="text_31">
    <text style="font-size: 9px; font-family: 'Arial', 'Helvetica', 'DejaVu Sans', sans-serif; text-anchor: end; fill: #b0b5bd" x="124.450781" y="432.034711" transform="rotate(-0 124.450781 432.034711)">Unseen dataset</text>
   </g>
   <g id="text_32">
    <text style="font-weight: 500; font-size: 12px; font-family: 'Arial', 'Helvetica', 'DejaVu Sans', sans-serif; text-anchor: end; fill: #6b7280" x="124.450781" y="445.687793" transform="rotate(-0 124.450781 445.687793)">ETTm2</text>
   </g>
  </g>
  <g id="axes_26">
   <g id="patch_111">
    <path d="M 267.491513 423.138639 
Q 279.821711 423.138639 289.91584 423.138639 
" style="fill: none; stroke: #5b6470; stroke-width: 2; stroke-linecap: round"/>
    <path d="M 285.91584 421.138639 
L 289.91584 423.138639 
L 285.91584 425.138639 
z
" style="fill: #5b6470; stroke: #5b6470; stroke-width: 2; stroke-linecap: round"/>
   </g>
  </g>
  <g id="axes_27">
   <g id="patch_112">
    <path d="M 307.316463 455.201813 
L 403.619002 455.201813 
L 403.619002 391.075465 
L 307.316463 391.075465 
z
" style="fill: #ffffff"/>
   </g>
   <g id="FillBetweenPolyCollection_22">
    <defs>
     <path id="m4363b3c6fa" d="M 307.316463 -7.2 
L 307.316463 -13.405776 
L 313.736632 -57.164449 
L 320.156801 -29.318021 
L 326.576971 -33.296083 
L 332.99714 -45.230266 
L 339.417309 -49.208327 
L 345.837478 -57.164449 
L 352.257648 -61.142511 
L 358.677817 -61.142511 
L 365.097986 -45.230266 
L 371.518155 -65.120572 
L 377.938325 -53.186389 
L 384.358494 -53.186389 
L 390.778663 -41.252205 
L 397.198833 -41.252205 
L 403.619002 -33.296083 
L 403.619002 -7.2 
L 403.619002 -7.2 
L 397.198833 -7.2 
L 390.778663 -7.2 
L 384.358494 -7.2 
L 377.938325 -7.2 
L 371.518155 -7.2 
L 365.097986 -7.2 
L 358.677817 -7.2 
L 352.257648 -7.2 
L 345.837478 -7.2 
L 339.417309 -7.2 
L 332.99714 -7.2 
L 326.576971 -7.2 
L 320.156801 -7.2 
L 313.736632 -7.2 
L 307.316463 -7.2 
z
"/>
    </defs>
    <g clip-path="url(#p251edb5b21)">
     <use xlink:href="#m4363b3c6fa" x="0" y="462.401813" style="fill: #8172b3; fill-opacity: 0.22"/>
    </g>
   </g>
   <g id="matplotlib.axis_43"/>
   <g id="matplotlib.axis_44"/>
   <g id="line2d_22">
    <path d="M 307.316463 448.996037 
L 313.736632 405.237363 
L 320.156801 433.083792 
L 326.576971 429.10573 
L 332.99714 417.171547 
L 339.417309 413.193486 
L 345.837478 405.237363 
L 352.257648 401.259302 
L 358.677817 401.259302 
L 365.097986 417.171547 
L 371.518155 397.281241 
L 377.938325 409.215424 
L 384.358494 409.215424 
L 390.778663 421.149608 
L 397.198833 421.149608 
L 403.619002 429.10573 
" clip-path="url(#p251edb5b21)" style="fill: none; stroke: #2b3038; stroke-width: 2.2; stroke-linecap: round"/>
   </g>
   <g id="patch_113">
    <path d="M 307.316463 455.201813 
L 307.316463 391.075465 
" style="fill: none; stroke: #cfd4dc; stroke-width: 0.8; stroke-linejoin: miter; stroke-linecap: square"/>
   </g>
   <g id="patch_114">
    <path d="M 403.619002 455.201813 
L 403.619002 391.075465 
" style="fill: none; stroke: #cfd4dc; stroke-width: 0.8; stroke-linejoin: miter; stroke-linecap: square"/>
   </g>
   <g id="patch_115">
    <path d="M 307.316463 455.201813 
L 403.619002 455.201813 
" style="fill: none; stroke: #cfd4dc; stroke-width: 0.8; stroke-linejoin: miter; stroke-linecap: square"/>
   </g>
   <g id="patch_116">
    <path d="M 307.316463 391.075465 
L 403.619002 391.075465 
" style="fill: none; stroke: #cfd4dc; stroke-width: 0.8; stroke-linejoin: miter; stroke-linecap: square"/>
   </g>
   <g id="text_33">
    <text style="font-weight: 700; font-size: 13px; font-family: 'Arial', 'Helvetica', 'DejaVu Sans', sans-serif; text-anchor: middle; fill: #8172b3" x="355.467732" y="385.075465" transform="rotate(-0 355.467732 385.075465)">Retail/Web</text>
   </g>
  </g>
  <g id="axes_28">
   <g id="patch_117">
    <path d="M 415.241113 455.201813 
L 511.543652 455.201813 
L 511.543652 391.075465 
L 415.241113 391.075465 
z
" style="fill: #ffffff"/>
   </g>
   <g id="FillBetweenPolyCollection_23">
    <defs>
     <path id="m2570df8abf" d="M 415.241113 -7.2 
L 415.241113 -51.261154 
L 421.661283 -26.17263 
L 428.081452 -36.713853 
L 434.501621 -46.890888 
L 440.92179 -48.448841 
L 447.34196 -63.097287 
L 453.762129 -65.120572 
L 460.182298 -52.839303 
L 466.602467 -54.154465 
L 473.022637 -50.39118 
L 479.442806 -36.552008 
L 485.862975 -27.285396 
L 492.283145 -23.178173 
L 498.703314 -13.405776 
L 505.123483 -43.653688 
L 511.543652 -33.598001 
L 511.543652 -7.2 
L 511.543652 -7.2 
L 505.123483 -7.2 
L 498.703314 -7.2 
L 492.283145 -7.2 
L 485.862975 -7.2 
L 479.442806 -7.2 
L 473.022637 -7.2 
L 466.602467 -7.2 
L 460.182298 -7.2 
L 453.762129 -7.2 
L 447.34196 -7.2 
L 440.92179 -7.2 
L 434.501621 -7.2 
L 428.081452 -7.2 
L 421.661283 -7.2 
L 415.241113 -7.2 
z
"/>
    </defs>
    <g clip-path="url(#pef4785209c)">
     <use xlink:href="#m2570df8abf" x="0" y="462.401813" style="fill: #55a868; fill-opacity: 0.22"/>
    </g>
   </g>
   <g id="matplotlib.axis_45"/>
   <g id="matplotlib.axis_46"/>
   <g id="line2d_23">
    <path d="M 415.241113 411.140659 
L 421.661283 436.229183 
L 428.081452 425.68796 
L 434.501621 415.510924 
L 440.92179 413.952971 
L 447.34196 399.304525 
L 453.762129 397.281241 
L 460.182298 409.56251 
L 466.602467 408.247347 
L 473.022637 412.010633 
L 479.442806 425.849804 
L 485.862975 435.116416 
L 492.283145 439.22364 
L 498.703314 448.996037 
L 505.123483 418.748124 
L 511.543652 428.803812 
" clip-path="url(#pef4785209c)" style="fill: none; stroke: #2b3038; stroke-width: 2.2; stroke-linecap: round"/>
   </g>
   <g id="patch_118">
    <path d="M 415.241113 455.201813 
L 415.241113 391.075465 
" style="fill: none; stroke: #cfd4dc; stroke-width: 0.8; stroke-linejoin: miter; stroke-linecap: square"/>
   </g>
   <g id="patch_119">
    <path d="M 511.543652 455.201813 
L 511.543652 391.075465 
" style="fill: none; stroke: #cfd4dc; stroke-width: 0.8; stroke-linejoin: miter; stroke-linecap: square"/>
   </g>
   <g id="patch_120">
    <path d="M 415.241113 455.201813 
L 511.543652 455.201813 
" style="fill: none; stroke: #cfd4dc; stroke-width: 0.8; stroke-linejoin: miter; stroke-linecap: square"/>
   </g>
   <g id="patch_121">
    <path d="M 415.241113 391.075465 
L 511.543652 391.075465 
" style="fill: none; stroke: #cfd4dc; stroke-width: 0.8; stroke-linejoin: miter; stroke-linecap: square"/>
   </g>
   <g id="text_34">
    <text style="font-weight: 700; font-size: 13px; font-family: 'Arial', 'Helvetica', 'DejaVu Sans', sans-serif; text-anchor: middle; fill: #55a868" x="463.392383" y="385.075465" transform="rotate(-0 463.392383 385.075465)">Environment</text>
   </g>
  </g>
  <g id="axes_29">
   <g id="patch_122">
    <path d="M 523.165764 455.201813 
L 619.468303 455.201813 
L 619.468303 391.075465 
L 523.165764 391.075465 
z
" style="fill: #ffffff"/>
   </g>
   <g id="FillBetweenPolyCollection_24">
    <defs>
     <path id="m23f1cbee2d" d="M 523.165764 -7.2 
L 523.165764 -13.405776 
L 529.585933 -17.439123 
L 536.006102 -39.29969 
L 542.426272 -34.58533 
L 548.846441 -43.202931 
L 555.26661 -43.202931 
L 561.686779 -38.326057 
L 568.106949 -38.650601 
L 574.527118 -43.365445 
L 580.947287 -30.203252 
L 587.367457 -42.553842 
L 593.787626 -61.509953 
L 600.207795 -61.509953 
L 606.627964 -65.120572 
L 613.048134 -57.411792 
L 619.468303 -44.833877 
L 619.468303 -7.2 
L 619.468303 -7.2 
L 613.048134 -7.2 
L 606.627964 -7.2 
L 600.207795 -7.2 
L 593.787626 -7.2 
L 587.367457 -7.2 
L 580.947287 -7.2 
L 574.527118 -7.2 
L 568.106949 -7.2 
L 561.686779 -7.2 
L 555.26661 -7.2 
L 548.846441 -7.2 
L 542.426272 -7.2 
L 536.006102 -7.2 
L 529.585933 -7.2 
L 523.165764 -7.2 
z
"/>
    </defs>
    <g clip-path="url(#pff2bf5b714)">
     <use xlink:href="#m23f1cbee2d" x="0" y="462.401813" style="fill: #c44e52; fill-opacity: 0.22"/>
    </g>
   </g>
   <g id="matplotlib.axis_47"/>
   <g id="matplotlib.axis_48"/>
   <g id="line2d_24">
    <path d="M 523.165764 448.996037 
L 529.585933 444.96269 
L 536.006102 423.102123 
L 542.426272 427.816482 
L 548.846441 419.198882 
L 555.26661 419.198882 
L 561.686779 424.075756 
L 568.106949 423.751211 
L 574.527118 419.036367 
L 580.947287 432.19856 
L 587.367457 419.84797 
L 593.787626 400.89186 
L 600.207795 400.89186 
L 606.627964 397.281241 
L 613.048134 404.990021 
L 619.468303 417.567936 
" clip-path="url(#pff2bf5b714)" style="fill: none; stroke: #2b3038; stroke-width: 2.2; stroke-linecap: round"/>
   </g>
   <g id="patch_123">
    <path d="M 523.165764 455.201813 
L 523.165764 391.075465 
" style="fill: none; stroke: #cfd4dc; stroke-width: 0.8; stroke-linejoin: miter; stroke-linecap: square"/>
   </g>
   <g id="patch_124">
    <path d="M 619.468303 455.201813 
L 619.468303 391.075465 
" style="fill: none; stroke: #cfd4dc; stroke-width: 0.8; stroke-linejoin: miter; stroke-linecap: square"/>
   </g>
   <g id="patch_125">
    <path d="M 523.165764 455.201813 
L 619.468303 455.201813 
" style="fill: none; stroke: #cfd4dc; stroke-width: 0.8; stroke-linejoin: miter; stroke-linecap: square"/>
   </g>
   <g id="patch_126">
    <path d="M 523.165764 391.075465 
L 619.468303 391.075465 
" style="fill: none; stroke: #cfd4dc; stroke-width: 0.8; stroke-linejoin: miter; stroke-linecap: square"/>
   </g>
   <g id="text_35">
    <text style="font-weight: 700; font-size: 13px; font-family: 'Arial', 'Helvetica', 'DejaVu Sans', sans-serif; text-anchor: middle; fill: #c44e52" x="571.317033" y="385.075465" transform="rotate(-0 571.317033 385.075465)">Finance</text>
   </g>
  </g>
  <g id="axes_30">
   <g id="patch_127">
    <path d="M 631.090414 455.201813 
L 727.392953 455.201813 
L 727.392953 391.075465 
L 631.090414 391.075465 
z
" style="fill: #ffffff"/>
   </g>
   <g id="FillBetweenPolyCollection_25">
    <defs>
     <path id="m637d86ea20" d="M 631.090414 -7.2 
L 631.090414 -44.670956 
L 637.510584 -58.103463 
L 643.930753 -60.20298 
L 650.350922 -63.111808 
L 656.771091 -62.804991 
L 663.191261 -63.332607 
L 669.61143 -63.120759 
L 676.031599 -65.120572 
L 682.451769 -63.026773 
L 688.871938 -61.284061 
L 695.292107 -59.39763 
L 701.712276 -49.494566 
L 708.132446 -28.229415 
L 714.552615 -23.523166 
L 720.972784 -13.405776 
L 727.392953 -26.086142 
L 727.392953 -7.2 
L 727.392953 -7.2 
L 720.972784 -7.2 
L 714.552615 -7.2 
L 708.132446 -7.2 
L 701.712276 -7.2 
L 695.292107 -7.2 
L 688.871938 -7.2 
L 682.451769 -7.2 
L 676.031599 -7.2 
L 669.61143 -7.2 
L 663.191261 -7.2 
L 656.771091 -7.2 
L 650.350922 -7.2 
L 643.930753 -7.2 
L 637.510584 -7.2 
L 631.090414 -7.2 
z
"/>
    </defs>
    <g clip-path="url(#p2a8e0ee0fd)">
     <use xlink:href="#m637d86ea20" x="0" y="462.401813" style="fill: #dd8452; fill-opacity: 0.22"/>
    </g>
   </g>
   <g id="matplotlib.axis_49"/>
   <g id="matplotlib.axis_50"/>
   <g id="line2d_25">
    <path d="M 631.090414 417.730856 
L 637.510584 404.29835 
L 643.930753 402.198832 
L 650.350922 399.290004 
L 656.771091 399.596822 
L 663.191261 399.069206 
L 669.61143 399.281054 
L 676.031599 397.281241 
L 682.451769 399.375039 
L 688.871938 401.117751 
L 695.292107 403.004183 
L 701.712276 412.907247 
L 708.132446 434.172398 
L 714.552615 438.878647 
L 720.972784 448.996037 
L 727.392953 436.31567 
" clip-path="url(#p2a8e0ee0fd)" style="fill: none; stroke: #2b3038; stroke-width: 2.2; stroke-linecap: round"/>
   </g>
   <g id="patch_128">
    <path d="M 631.090414 455.201813 
L 631.090414 391.075465 
" style="fill: none; stroke: #cfd4dc; stroke-width: 0.8; stroke-linejoin: miter; stroke-linecap: square"/>
   </g>
   <g id="patch_129">
    <path d="M 727.392953 455.201813 
L 727.392953 391.075465 
" style="fill: none; stroke: #cfd4dc; stroke-width: 0.8; stroke-linejoin: miter; stroke-linecap: square"/>
   </g>
   <g id="patch_130">
    <path d="M 631.090414 455.201813 
L 727.392953 455.201813 
" style="fill: none; stroke: #cfd4dc; stroke-width: 0.8; stroke-linejoin: miter; stroke-linecap: square"/>
   </g>
   <g id="patch_131">
    <path d="M 631.090414 391.075465 
L 727.392953 391.075465 
" style="fill: none; stroke: #cfd4dc; stroke-width: 0.8; stroke-linejoin: miter; stroke-linecap: square"/>
   </g>
   <g id="text_36">
    <text style="font-weight: 700; font-size: 13px; font-family: 'Arial', 'Helvetica', 'DejaVu Sans', sans-serif; text-anchor: middle; fill: #dd8452" x="679.241684" y="385.075465" transform="rotate(-0 679.241684 385.075465)">Energy</text>
   </g>
  </g>
 </g>
 <defs>
  <clipPath id="pefb1c0f627">
   <rect x="132.877253" y="26.837812" width="120.378174" height="64.126347"/>
  </clipPath>
  <clipPath id="p5e6bca90e3">
   <rect x="307.316463" y="26.837812" width="96.302539" height="64.126347"/>
  </clipPath>
  <clipPath id="pb0e9fd6a17">
   <rect x="415.241113" y="26.837812" width="96.302539" height="64.126347"/>
  </clipPath>
  <clipPath id="pf20fc005bd">
   <rect x="523.165764" y="26.837812" width="96.302539" height="64.126347"/>
  </clipPath>
  <clipPath id="p5b4a49bd6b">
   <rect x="631.090414" y="26.837812" width="96.302539" height="64.126347"/>
  </clipPath>
  <clipPath id="p1d8dd50051">
   <rect x="132.877253" y="117.897226" width="120.378174" height="64.126347"/>
  </clipPath>
  <clipPath id="p924274c09b">
   <rect x="307.316463" y="117.897226" width="96.302539" height="64.126347"/>
  </clipPath>
  <clipPath id="peabf6ebdc9">
   <rect x="415.241113" y="117.897226" width="96.302539" height="64.126347"/>
  </clipPath>
  <clipPath id="pdcb4cbb3ce">
   <rect x="523.165764" y="117.897226" width="96.302539" height="64.126347"/>
  </clipPath>
  <clipPath id="p38200102c8">
   <rect x="631.090414" y="117.897226" width="96.302539" height="64.126347"/>
  </clipPath>
  <clipPath id="pe94bacded8">
   <rect x="132.877253" y="208.956639" width="120.378174" height="64.126347"/>
  </clipPath>
  <clipPath id="p2bb1db73d7">
   <rect x="307.316463" y="208.956639" width="96.302539" height="64.126347"/>
  </clipPath>
  <clipPath id="p9020319f4a">
   <rect x="415.241113" y="208.956639" width="96.302539" height="64.126347"/>
  </clipPath>
  <clipPath id="p7e99fa007d">
   <rect x="523.165764" y="208.956639" width="96.302539" height="64.126347"/>
  </clipPath>
  <clipPath id="p8cd34d9965">
   <rect x="631.090414" y="208.956639" width="96.302539" height="64.126347"/>
  </clipPath>
  <clipPath id="p7b0e1974cc">
   <rect x="132.877253" y="300.016052" width="120.378174" height="64.126347"/>
  </clipPath>
  <clipPath id="p880d51de21">
   <rect x="307.316463" y="300.016052" width="96.302539" height="64.126347"/>
  </clipPath>
  <clipPath id="p158850d8b2">
   <rect x="415.241113" y="300.016052" width="96.302539" height="64.126347"/>
  </clipPath>
  <clipPath id="p4557becd7f">
   <rect x="523.165764" y="300.016052" width="96.302539" height="64.126347"/>
  </clipPath>
  <clipPath id="pe9a6bbad51">
   <rect x="631.090414" y="300.016052" width="96.302539" height="64.126347"/>
  </clipPath>
  <clipPath id="p2843011687">
   <rect x="132.877253" y="391.075465" width="120.378174" height="64.126347"/>
  </clipPath>
  <clipPath id="p251edb5b21">
   <rect x="307.316463" y="391.075465" width="96.302539" height="64.126347"/>
  </clipPath>
  <clipPath id="pef4785209c">
   <rect x="415.241113" y="391.075465" width="96.302539" height="64.126347"/>
  </clipPath>
  <clipPath id="pff2bf5b714">
   <rect x="523.165764" y="391.075465" width="96.302539" height="64.126347"/>
  </clipPath>
  <clipPath id="p2a8e0ee0fd">
   <rect x="631.090414" y="391.075465" width="96.302539" height="64.126347"/>
  </clipPath>
 </defs>
</svg>
